<?xml version="1.0" encoding="UTF-8" standalone="no"?>
<!-- Created with Inkscape (http://www.inkscape.org/) -->

<svg
   width="116.58575mm"
   height="25.853401mm"
   viewBox="0 0 116.58575 25.853401"
   version="1.1"
   id="svg537"
   xmlns="http://www.w3.org/2000/svg"
   xmlns:svg="http://www.w3.org/2000/svg">
  <defs
     id="defs534" />
  <g
     id="layer1"
     transform="translate(-63.559982,-105.94409)">
    <path
       id="subheader"
       d="M 141.56194 127.39033 C 141.36233 127.39033 141.20812 127.44621 141.09892 127.55776 C 140.98972 127.6693 140.9351 127.82732 140.9351 128.03163 L 140.9351 128.22697 L 140.63383 128.22697 L 140.63383 128.47915 L 140.9351 128.47915 L 140.9351 130.13279 L 141.26067 130.13279 L 141.26067 128.47915 L 141.66788 128.47915 L 141.66788 128.22697 L 141.26067 128.22697 L 141.26067 128.02646 C 141.26067 127.9114 141.28943 127.82295 141.34697 127.76188 C 141.4045 127.69961 141.48623 127.66886 141.59191 127.66886 C 141.65412 127.66886 141.71293 127.67377 141.76813 127.68437 L 141.7857 127.4203 C 141.71172 127.40037 141.63709 127.39033 141.56194 127.39033 z M 100.02907 127.42753 L 100.02907 130.13279 L 100.35515 130.13279 L 100.35515 127.42753 L 100.02907 127.42753 z M 100.90447 127.42753 L 100.90447 130.13279 L 101.23055 130.13279 L 101.23055 127.42753 L 100.90447 127.42753 z M 111.90897 127.42753 L 111.90897 130.13279 L 112.23505 130.13279 L 112.23505 128.77474 C 112.27967 128.68312 112.34175 128.60938 112.4216 128.55305 C 112.50144 128.49671 112.59446 128.4683 112.70013 128.4683 C 112.83046 128.4683 112.92587 128.50127 112.98694 128.567 C 113.04901 128.63275 113.08069 128.73451 113.08202 128.87189 L 113.08202 130.13279 L 113.4081 130.13279 L 113.4081 128.87344 C 113.40458 128.41903 113.20158 128.19183 112.79884 128.19183 C 112.56752 128.19183 112.37947 128.28066 112.23505 128.45796 L 112.23505 127.42753 L 111.90897 127.42753 z M 137.19063 127.42753 L 137.19063 128.42075 C 137.0603 128.26811 136.88353 128.19183 136.66043 128.19183 C 136.43616 128.19183 136.25483 128.28104 136.11628 128.45951 C 135.97772 128.63682 135.90854 128.87149 135.90854 129.16386 L 135.90854 129.18867 C 135.90854 129.47987 135.97772 129.71581 136.11628 129.89663 C 136.256 130.07745 136.43607 130.16793 136.65681 130.16793 C 136.8893 130.16793 137.07063 130.08836 137.20097 129.92867 L 137.21698 130.13279 L 137.51619 130.13279 L 137.51619 127.42753 L 137.19063 127.42753 z M 175.44049 127.42753 L 175.44049 130.13279 L 175.76605 130.13279 L 175.76605 127.42753 L 175.44049 127.42753 z M 158.68699 127.53295 C 158.62358 127.53295 158.57568 127.55133 158.54281 127.58773 C 158.51108 127.6241 158.49476 127.66871 158.49476 127.72157 C 158.49476 127.77443 158.51108 127.81866 158.54281 127.85386 C 158.57569 127.88906 158.62359 127.90657 158.68699 127.90657 C 158.75041 127.90657 158.7983 127.88906 158.83117 127.85386 C 158.86404 127.81867 158.88078 127.77444 158.88078 127.72157 C 158.88078 127.66873 158.86404 127.62413 158.83117 127.58773 C 158.79828 127.55133 158.75039 127.53295 158.68699 127.53295 z M 164.8954 127.53295 C 164.56898 127.53295 164.31555 127.63927 164.13472 127.8518 C 163.95507 128.06432 163.86497 128.36414 163.86497 128.75045 L 163.86497 128.97369 C 163.86732 129.21205 163.91282 129.42177 164.00088 129.60259 C 164.09012 129.78342 164.21556 129.92306 164.3776 130.02169 C 164.53963 130.11914 164.72515 130.16793 164.93416 130.16793 C 165.14082 130.16793 165.32177 130.13753 165.47676 130.07647 C 165.63293 130.01423 165.75418 129.92085 165.84108 129.79638 L 165.84108 128.85587 L 164.91142 128.85587 L 164.91142 129.13079 L 165.50466 129.13079 L 165.50466 129.70646 C 165.44243 129.77337 165.36413 129.82089 165.26902 129.84909 C 165.17391 129.87729 165.06304 129.89147 164.93622 129.89147 C 164.71196 129.89147 164.53392 129.80681 164.40241 129.63773 C 164.2709 129.46747 164.205 129.23863 164.205 128.95095 L 164.205 128.74166 C 164.20617 128.4399 164.26497 128.20926 164.38122 128.05075 C 164.49864 127.89106 164.67085 127.81149 164.89747 127.81149 C 165.23799 127.81149 165.43971 127.98116 165.50311 128.3205 L 165.84108 128.3205 C 165.80468 128.06923 165.70508 127.87535 165.54187 127.73914 C 165.37866 127.60176 165.16311 127.53295 164.8954 127.53295 z M 96.156442 127.56861 L 96.156442 130.13279 L 96.494406 130.13279 L 96.494406 129.00005 L 97.570309 129.00005 L 97.570309 128.72358 L 96.494406 128.72358 L 96.494406 127.84663 L 97.744975 127.84663 L 97.744975 127.56861 L 96.156442 127.56861 z M 107.92007 127.56861 L 107.92007 130.13279 L 109.54891 130.13279 L 109.54891 129.85633 L 108.25803 129.85633 L 108.25803 128.94734 L 109.36959 128.94734 L 109.36959 128.67087 L 108.25803 128.67087 L 108.25803 127.84663 L 109.53134 127.84663 L 109.53134 127.56861 L 107.92007 127.56861 z M 130.83236 127.56861 L 130.83236 130.13279 L 131.17033 130.13279 L 131.17033 129.13441 L 131.13725 128.0616 L 131.97699 130.13279 L 132.23589 130.13279 L 133.0777 128.05644 L 133.04618 129.13441 L 133.04618 130.13279 L 133.38466 130.13279 L 133.38466 127.56861 L 132.94593 127.56861 L 132.10774 129.66099 L 131.26903 127.56861 L 130.83236 127.56861 z M 146.27328 127.56861 L 146.27328 130.13279 L 146.61176 130.13279 L 146.61176 127.56861 L 146.27328 127.56861 z M 105.91399 127.7655 L 105.91399 128.22697 L 105.56672 128.22697 L 105.56672 128.47915 L 105.91399 128.47915 L 105.91399 129.66099 C 105.91399 129.82303 105.9506 129.94809 106.02457 130.03616 C 106.09855 130.12422 106.20867 130.16793 106.35427 130.16793 C 106.43529 130.16793 106.51867 130.15626 106.60438 130.13279 L 106.60438 129.86873 C 106.53866 129.88279 106.48695 129.88992 106.44935 129.88992 C 106.37306 129.88992 106.31882 129.87119 106.28709 129.83359 C 106.25536 129.79484 106.23955 129.73732 106.23955 129.66099 L 106.23955 128.47915 L 106.5956 128.47915 L 106.5956 128.22697 L 106.23955 128.22697 L 106.23955 127.7655 L 105.91399 127.7655 z M 128.82628 127.7655 L 128.82628 128.22697 L 128.47953 128.22697 L 128.47953 128.47915 L 128.82628 128.47915 L 128.82628 129.66099 C 128.82628 129.82303 128.86341 129.94809 128.93739 130.03616 C 129.01136 130.12422 129.12097 130.16793 129.26657 130.16793 C 129.34759 130.16793 129.43097 130.15626 129.51668 130.13279 L 129.51668 129.86873 C 129.45095 129.88279 129.39925 129.88992 129.36165 129.88992 C 129.28536 129.88992 129.23164 129.87119 129.1999 129.83359 C 129.16817 129.79484 129.15184 129.73732 129.15184 129.66099 L 129.15184 128.47915 L 129.50789 128.47915 L 129.50789 128.22697 L 129.15184 128.22697 L 129.15184 127.7655 L 128.82628 127.7655 z M 98.780571 128.19183 C 98.642017 128.19183 98.514409 128.21768 98.398166 128.26934 C 98.283095 128.32101 98.191866 128.39146 98.123764 128.4807 C 98.056835 128.56876 98.022995 128.6605 98.022995 128.75562 L 98.350623 128.75562 C 98.350623 128.67227 98.390292 128.60093 98.468962 128.54219 C 98.547632 128.48346 98.64469 128.45434 98.760934 128.45434 C 98.893617 128.45434 98.994105 128.48856 99.062208 128.55666 C 99.13031 128.6236 99.164527 128.71355 99.164527 128.82745 L 99.164527 128.97731 L 98.847234 128.97731 C 98.573649 128.97731 98.361533 129.03282 98.210063 129.14319 C 98.059768 129.25239 97.984237 129.40623 97.984237 129.60466 C 97.984237 129.76787 98.044305 129.90243 98.164071 130.00929 C 98.285013 130.11496 98.439222 130.16793 98.627092 130.16793 C 98.837271 130.16793 99.018225 130.08911 99.169695 129.93177 C 99.181435 130.02803 99.1969 130.09519 99.215687 130.13279 L 99.557268 130.13279 L 99.557268 130.10489 C 99.512648 130.00156 99.490605 129.8623 99.490605 129.68734 L 99.490605 128.80988 C 99.485909 128.61731 99.421283 128.46691 99.296819 128.35771 C 99.172355 128.24734 99.000144 128.19183 98.780571 128.19183 z M 102.53021 128.19183 C 102.36231 128.19183 102.21265 128.23225 102.08114 128.31327 C 101.95081 128.39428 101.84868 128.50934 101.7747 128.65847 C 101.7019 128.80759 101.66567 128.97562 101.66567 129.16231 L 101.66567 129.18505 C 101.66567 129.48094 101.74524 129.71905 101.90493 129.8987 C 102.06579 130.07835 102.2755 130.16793 102.53383 130.16793 C 102.70526 130.16793 102.85655 130.12714 102.98807 130.04494 C 103.12075 129.96275 103.2225 129.84807 103.29296 129.7013 C 103.36458 129.55335 103.40044 129.38659 103.40044 129.20107 L 103.40044 129.17833 C 103.40044 128.88009 103.31998 128.64123 103.15912 128.46158 C 102.99943 128.28193 102.78971 128.19183 102.53021 128.19183 z M 110.80826 128.19183 C 110.57342 128.19183 110.38335 128.28357 110.23775 128.46675 L 110.2269 128.22697 L 109.91891 128.22697 L 109.91891 130.13279 L 110.24499 130.13279 L 110.24499 128.77474 C 110.28961 128.68312 110.3517 128.60938 110.43154 128.55305 C 110.51139 128.49671 110.60389 128.4683 110.70956 128.4683 C 110.83989 128.4683 110.93581 128.50127 110.99688 128.567 C 111.05895 128.63275 111.09063 128.73451 111.09196 128.87189 L 111.09196 130.13279 L 111.41753 130.13279 L 111.41753 128.87344 C 111.414 128.41903 111.211 128.19183 110.80826 128.19183 z M 114.63748 128.19183 C 114.49893 128.19183 114.37133 128.21768 114.25508 128.26934 C 114.14001 128.32101 114.04826 128.39146 113.98016 128.4807 C 113.91323 128.56876 113.87991 128.6605 113.87991 128.75562 L 114.20754 128.75562 C 114.20754 128.67227 114.24669 128.60093 114.32536 128.54219 C 114.40403 128.48346 114.50161 128.45434 114.61785 128.45434 C 114.75053 128.45434 114.85102 128.48856 114.91912 128.55666 C 114.98723 128.6236 115.02144 128.71355 115.02144 128.82745 L 115.02144 128.97731 L 114.70415 128.97731 C 114.43057 128.97731 114.21793 129.03282 114.06646 129.14319 C 113.91617 129.25239 113.84115 129.40623 113.84115 129.60466 C 113.84115 129.76787 113.90122 129.90243 114.02098 130.00929 C 114.14192 130.11496 114.29613 130.16793 114.48401 130.16793 C 114.69418 130.16793 114.87513 130.08911 115.02661 129.93177 C 115.03834 130.02803 115.0538 130.09519 115.0726 130.13279 L 115.41418 130.13279 L 115.41418 130.10489 C 115.36958 130.00156 115.347 129.8623 115.347 129.68734 L 115.347 128.80988 C 115.34231 128.61731 115.27768 128.46691 115.15322 128.35771 C 115.02876 128.24734 114.85706 128.19183 114.63748 128.19183 z M 116.74743 128.19183 C 116.51259 128.19183 116.32253 128.28357 116.17693 128.46675 L 116.16607 128.22697 L 115.85808 128.22697 L 115.85808 130.13279 L 116.18364 130.13279 L 116.18364 128.77474 C 116.22826 128.68312 116.29087 128.60938 116.37071 128.55305 C 116.45056 128.49671 116.54305 128.4683 116.64873 128.4683 C 116.77906 128.4683 116.87499 128.50127 116.93605 128.567 C 116.99812 128.63275 117.0298 128.73451 117.03114 128.87189 L 117.03114 130.13279 L 117.3567 130.13279 L 117.3567 128.87344 C 117.35318 128.41903 117.15018 128.19183 116.74743 128.19183 z M 118.61089 128.19183 C 118.43711 128.19183 118.28619 128.23188 118.1582 128.31172 C 118.03139 128.39156 117.93382 128.5037 117.86571 128.64813 C 117.79761 128.79256 117.76339 128.95767 117.76339 129.14319 L 117.76339 129.19745 C 117.76339 129.49804 117.8402 129.73526 117.99284 129.90904 C 118.14666 130.08164 118.35294 130.16793 118.61244 130.16793 C 118.7416 130.16793 118.86375 130.13882 118.97882 130.08008 C 119.09507 130.02137 119.18808 129.94255 119.25736 129.84392 C 119.3265 129.74529 119.36401 129.64151 119.37001 129.53231 L 119.0615 129.53231 C 119.05211 129.63799 119.00422 129.72593 118.91733 129.79638 C 118.83044 129.86683 118.72868 129.90232 118.61244 129.90232 C 118.44453 129.90232 118.31528 129.84263 118.22486 129.72403 C 118.13445 129.60544 118.08947 129.43666 118.08947 129.21709 L 118.08947 129.15508 C 118.08947 128.92963 118.13445 128.75794 118.22486 128.63935 C 118.31645 128.51958 118.44533 128.45951 118.61089 128.45951 C 118.73418 128.45951 118.83758 128.49955 118.92094 128.5794 C 119.00548 128.65807 119.0521 128.75893 119.0615 128.88222 L 119.37001 128.88222 C 119.36062 128.67792 119.28471 128.51205 119.14264 128.38406 C 119.00174 128.25608 118.82459 128.19183 118.61089 128.19183 z M 120.48674 128.19183 C 120.33527 128.19183 120.19436 128.23389 120.06403 128.31843 C 119.93487 128.4018 119.83349 128.51813 119.76069 128.66725 C 119.68906 128.8152 119.65372 128.9836 119.65372 129.17265 L 119.65372 129.23259 C 119.65372 129.51674 119.73456 129.74394 119.89659 129.9142 C 120.05863 130.08328 120.26873 130.16793 120.52705 130.16793 C 120.84643 130.16793 121.08617 130.0454 121.24587 129.8 L 121.0464 129.64497 C 120.98652 129.7225 120.91695 129.78459 120.83711 129.83152 C 120.75726 129.87852 120.65968 129.9018 120.54462 129.9018 C 120.38258 129.9018 120.24876 129.84427 120.14309 129.7292 C 120.03856 129.61296 119.98394 129.46129 119.97928 129.27342 L 121.27015 129.27342 L 121.27015 129.13751 C 121.27015 128.83339 121.20186 128.59998 121.06448 128.43677 C 120.92711 128.27356 120.73449 128.19183 120.48674 128.19183 z M 122.52796 128.19183 C 122.29077 128.19183 122.10235 128.27394 121.96262 128.43832 L 121.95383 128.22697 L 121.64584 128.22697 L 121.64584 130.13279 L 121.9714 130.13279 L 121.9714 128.74166 C 122.05008 128.55967 122.19644 128.4683 122.41014 128.4683 C 122.68138 128.4683 122.81683 128.60719 122.81683 128.88429 L 122.81683 130.13279 L 123.14446 130.13279 L 123.14446 128.86827 C 123.15737 128.74616 123.20362 128.64948 123.28347 128.57785 C 123.36331 128.50505 123.4638 128.4683 123.58474 128.4683 C 123.73154 128.4683 123.83622 128.50252 123.89842 128.57062 C 123.96068 128.63755 123.99195 128.73931 123.99195 128.87551 L 123.99195 130.13279 L 124.31751 130.13279 L 124.31751 128.85587 C 124.31047 128.4132 124.09784 128.19183 123.67983 128.19183 C 123.54127 128.19183 123.42128 128.22024 123.31913 128.27658 C 123.21814 128.33294 123.13551 128.40668 123.07211 128.49827 C 122.97583 128.29396 122.7945 128.19183 122.52796 128.19183 z M 125.5593 128.19183 C 125.40783 128.19183 125.26693 128.23389 125.13659 128.31843 C 125.00743 128.4018 124.90604 128.51813 124.83324 128.66725 C 124.76162 128.8152 124.72576 128.9836 124.72576 129.17265 L 124.72576 129.23259 C 124.72576 129.51674 124.80712 129.74394 124.96915 129.9142 C 125.13119 130.08328 125.34129 130.16793 125.59961 130.16793 C 125.91899 130.16793 126.15822 130.0454 126.31791 129.8 L 126.11895 129.64497 C 126.05907 129.7225 125.98951 129.78459 125.90966 129.83152 C 125.82982 129.87852 125.73225 129.9018 125.61718 129.9018 C 125.45514 129.9018 125.32133 129.84427 125.21565 129.7292 C 125.11112 129.61296 125.0565 129.46129 125.05184 129.27342 L 126.34271 129.27342 L 126.34271 129.13751 C 126.34271 128.83339 126.2739 128.59998 126.13652 128.43677 C 125.99914 128.27356 125.80705 128.19183 125.5593 128.19183 z M 127.6093 128.19183 C 127.37446 128.19183 127.18439 128.28357 127.03879 128.46675 L 127.02794 128.22697 L 126.71995 128.22697 L 126.71995 130.13279 L 127.04551 130.13279 L 127.04551 128.77474 C 127.09013 128.68312 127.15222 128.60938 127.23206 128.55305 C 127.3119 128.49671 127.40492 128.4683 127.5106 128.4683 C 127.64093 128.4683 127.73685 128.50127 127.79792 128.567 C 127.85999 128.63275 127.89167 128.73451 127.89301 128.87189 L 127.89301 130.13279 L 128.21857 130.13279 L 128.21857 128.87344 C 128.21505 128.41903 128.01205 128.19183 127.6093 128.19183 z M 134.70913 128.19183 C 134.54122 128.19183 134.39105 128.23225 134.25954 128.31327 C 134.12921 128.39428 134.02707 128.50934 133.9531 128.65847 C 133.8803 128.80759 133.84406 128.97562 133.84406 129.16231 L 133.84406 129.18505 C 133.84406 129.48094 133.92416 129.71905 134.08384 129.8987 C 134.24471 130.07835 134.45391 130.16793 134.71223 130.16793 C 134.88365 130.16793 135.03547 130.12714 135.16698 130.04494 C 135.29966 129.96275 135.4009 129.84807 135.47135 129.7013 C 135.54298 129.55335 135.57884 129.38659 135.57884 129.20107 L 135.57884 129.17833 C 135.57884 128.88009 135.49838 128.64123 135.33751 128.46158 C 135.17783 128.28193 134.96863 128.19183 134.70913 128.19183 z M 138.7125 128.19183 C 138.50702 128.19183 138.33772 128.24607 138.20504 128.35409 C 138.07352 128.46211 138.00763 128.59377 138.00763 128.74993 C 138.00763 128.84387 138.03056 128.92523 138.07636 128.99333 C 138.12333 129.06142 138.19505 129.12021 138.29134 129.16955 C 138.38879 129.21889 138.51969 129.26095 138.68408 129.29615 C 138.84967 129.33136 138.96509 129.37343 139.03083 129.42276 C 139.09775 129.4709 139.1316 129.53933 139.1316 129.6274 C 139.1316 129.71079 139.09409 129.77744 139.01894 129.8279 C 138.94497 129.87724 138.84613 129.9018 138.72284 129.9018 C 138.58898 129.9018 138.48102 129.87012 138.39882 129.80672 C 138.31793 129.74214 138.2746 129.65547 138.2686 129.54627 L 137.94252 129.54627 C 137.94252 129.65899 137.97549 129.76403 138.04122 129.86149 C 138.10815 129.95779 138.20027 130.0328 138.31769 130.0868 C 138.43511 130.1408 138.5702 130.16793 138.72284 130.16793 C 138.94006 130.16793 139.11683 130.11713 139.25304 130.01497 C 139.38924 129.91165 139.45716 129.7744 139.45716 129.60414 C 139.45716 129.50199 139.43259 129.41569 139.38326 129.34525 C 139.33512 129.27359 139.26048 129.21278 139.1595 129.16231 C 139.05852 129.11182 138.92636 129.06849 138.76314 129.03209 C 138.60108 128.99569 138.48945 128.9573 138.42725 128.91736 C 138.36498 128.87744 138.33371 128.81826 138.33371 128.7396 C 138.33371 128.65623 138.36704 128.58869 138.43396 128.53703 C 138.5009 128.48536 138.59391 128.45951 138.7125 128.45951 C 138.82757 128.45951 138.92261 128.49206 138.99775 128.55666 C 139.07407 128.62124 139.11196 128.6979 139.11196 128.78714 L 139.43959 128.78714 C 139.43959 128.61336 139.37204 128.47081 139.23702 128.35926 C 139.10316 128.24771 138.92855 128.19183 138.7125 128.19183 z M 142.80527 128.19183 C 142.63737 128.19183 142.48772 128.23225 142.35621 128.31327 C 142.22587 128.39428 142.12374 128.50934 142.04976 128.65847 C 141.97696 128.80759 141.94073 128.97562 141.94073 129.16231 L 141.94073 129.18505 C 141.94073 129.48094 142.0203 129.71905 142.17999 129.8987 C 142.34086 130.07835 142.55057 130.16793 142.80889 130.16793 C 142.98032 130.16793 143.13214 130.12714 143.26364 130.04494 C 143.39633 129.96275 143.49757 129.84807 143.56802 129.7013 C 143.63964 129.55335 143.67551 129.38659 143.67551 129.20107 L 143.67551 129.17833 C 143.67551 128.88009 143.59504 128.64123 143.43418 128.46158 C 143.27449 128.28193 143.06477 128.19183 142.80527 128.19183 z M 144.86045 128.19183 C 144.66435 128.19183 144.51306 128.27686 144.40621 128.44711 L 144.40104 128.22697 L 144.08427 128.22697 L 144.08427 130.13279 L 144.40983 130.13279 L 144.40983 128.77991 C 144.48615 128.59791 144.63124 128.50705 144.84494 128.50705 C 144.90246 128.50705 144.95581 128.51126 145.00514 128.51946 L 145.00514 128.21663 C 144.97226 128.20017 144.92385 128.19183 144.86045 128.19183 z M 148.05973 128.19183 C 147.82255 128.19183 147.63413 128.27394 147.49439 128.43832 L 147.48509 128.22697 L 147.1771 128.22697 L 147.1771 130.13279 L 147.50318 130.13279 L 147.50318 128.74166 C 147.58185 128.55967 147.72769 128.4683 147.94139 128.4683 C 148.21263 128.4683 148.34861 128.60719 148.34861 128.88429 L 148.34861 130.13279 L 148.67623 130.13279 L 148.67623 128.86827 C 148.68915 128.74616 148.7354 128.64948 148.81524 128.57785 C 148.89509 128.50505 148.99558 128.4683 149.11652 128.4683 C 149.26332 128.4683 149.36748 128.50252 149.42968 128.57062 C 149.49194 128.63755 149.52321 128.73931 149.52321 128.87551 L 149.52321 130.13279 L 149.84929 130.13279 L 149.84929 128.85587 C 149.84225 128.4132 149.62961 128.19183 149.2116 128.19183 C 149.07305 128.19183 148.95254 128.22024 148.85038 128.27658 C 148.7494 128.33294 148.66729 128.40668 148.60389 128.49827 C 148.5076 128.29396 148.32627 128.19183 148.05973 128.19183 z M 151.2213 128.19183 C 150.98411 128.19183 150.79568 128.27394 150.65596 128.43832 L 150.64666 128.22697 L 150.33866 128.22697 L 150.33866 130.13279 L 150.66474 130.13279 L 150.66474 128.74166 C 150.74342 128.55967 150.88926 128.4683 151.10296 128.4683 C 151.3742 128.4683 151.51017 128.60719 151.51017 128.88429 L 151.51017 130.13279 L 151.8378 130.13279 L 151.8378 128.86827 C 151.85071 128.74616 151.89696 128.64948 151.97681 128.57785 C 152.05665 128.50505 152.15713 128.4683 152.27808 128.4683 C 152.42488 128.4683 152.52904 128.50252 152.59124 128.57062 C 152.65344 128.63755 152.68477 128.73931 152.68477 128.87551 L 152.68477 130.13279 L 153.01034 130.13279 L 153.01034 128.85587 C 153.00329 128.4132 152.79117 128.19183 152.37317 128.19183 C 152.23461 128.19183 152.1141 128.22024 152.01195 128.27658 C 151.91096 128.33294 151.82885 128.40668 151.76545 128.49827 C 151.66917 128.29396 151.48784 128.19183 151.2213 128.19183 z M 154.25212 128.19183 C 154.10065 128.19183 153.95974 128.23389 153.82941 128.31843 C 153.70025 128.4018 153.59938 128.51813 153.52658 128.66725 C 153.45496 128.8152 153.4191 128.9836 153.4191 129.17265 L 153.4191 129.23259 C 153.4191 129.51674 153.49994 129.74394 153.66198 129.9142 C 153.82402 130.08328 154.03411 130.16793 154.29243 130.16793 C 154.61181 130.16793 154.85156 130.0454 155.01125 129.8 L 154.81229 129.64497 C 154.75241 129.7225 154.68233 129.78459 154.60249 129.83152 C 154.52265 129.87852 154.42507 129.9018 154.31 129.9018 C 154.14796 129.9018 154.01415 129.84427 153.90847 129.7292 C 153.80394 129.61296 153.74932 129.46129 153.74466 129.27342 L 155.03605 129.27342 L 155.03605 129.13751 C 155.03605 128.83339 154.96724 128.59998 154.82986 128.43677 C 154.69248 128.27356 154.49987 128.19183 154.25212 128.19183 z M 156.18895 128.19183 C 155.99287 128.19183 155.84157 128.27686 155.73472 128.44711 L 155.72955 128.22697 L 155.41277 128.22697 L 155.41277 130.13279 L 155.73833 130.13279 L 155.73833 128.77991 C 155.81466 128.59791 155.95975 128.50705 156.17345 128.50705 C 156.23096 128.50705 156.28431 128.51126 156.33365 128.51946 L 156.33365 128.21663 C 156.30077 128.20017 156.25235 128.19183 156.18895 128.19183 z M 157.32377 128.19183 C 157.11829 128.19183 156.94899 128.24607 156.81631 128.35409 C 156.6848 128.46211 156.61942 128.59377 156.61942 128.74993 C 156.61942 128.84387 156.64235 128.92523 156.68815 128.99333 C 156.73511 129.06142 156.80632 129.12021 156.9026 129.16955 C 157.00006 129.21889 157.13096 129.26095 157.29535 129.29615 C 157.46093 129.33136 157.57688 129.37343 157.64261 129.42276 C 157.70954 129.4709 157.74286 129.53933 157.74286 129.6274 C 157.74286 129.71079 157.70536 129.77744 157.63021 129.8279 C 157.55624 129.87724 157.4574 129.9018 157.3341 129.9018 C 157.20024 129.9018 157.09228 129.87012 157.01009 129.80672 C 156.9292 129.74214 156.88587 129.65547 156.87987 129.54627 L 156.55431 129.54627 C 156.55431 129.65899 156.58676 129.76403 156.65249 129.86149 C 156.71942 129.95779 156.81154 130.0328 156.92896 130.0868 C 157.04637 130.1408 157.18146 130.16793 157.3341 130.16793 C 157.55133 130.16793 157.7281 130.11713 157.8643 130.01497 C 158.0005 129.91165 158.06894 129.7744 158.06894 129.60414 C 158.06894 129.50199 158.04386 129.41569 157.99453 129.34525 C 157.94639 129.27359 157.87227 129.21278 157.77129 129.16231 C 157.67031 129.11182 157.53814 129.06849 157.37493 129.03209 C 157.21286 128.99569 157.10071 128.9573 157.03851 128.91736 C 156.97631 128.87744 156.94498 128.81826 156.94498 128.7396 C 156.94498 128.65623 156.97831 128.58869 157.04523 128.53703 C 157.11216 128.48536 157.20517 128.45951 157.32377 128.45951 C 157.43884 128.45951 157.53388 128.49206 157.60902 128.55666 C 157.68534 128.62124 157.72374 128.6979 157.72374 128.78714 L 158.05137 128.78714 C 158.05137 128.61336 157.98383 128.47081 157.8488 128.35926 C 157.71495 128.24771 157.53982 128.19183 157.32377 128.19183 z M 161.84339 128.19183 C 161.69192 128.19183 161.55101 128.23389 161.42068 128.31843 C 161.29152 128.4018 161.19013 128.51813 161.11733 128.66725 C 161.04571 128.8152 161.00985 128.9836 161.00985 129.17265 L 161.00985 129.23259 C 161.00985 129.51674 161.0912 129.74394 161.25324 129.9142 C 161.41528 130.08328 161.62538 130.16793 161.8837 130.16793 C 162.20307 130.16793 162.44282 130.0454 162.60252 129.8 L 162.40304 129.64497 C 162.34316 129.7225 162.2736 129.78459 162.19375 129.83152 C 162.11391 129.87852 162.01633 129.9018 161.90127 129.9018 C 161.73923 129.9018 161.60541 129.84427 161.49974 129.7292 C 161.39521 129.61296 161.34059 129.46129 161.33593 129.27342 L 162.6268 129.27342 L 162.6268 129.13751 C 162.6268 128.83339 162.55799 128.59998 162.42061 128.43677 C 162.28323 128.27356 162.09114 128.19183 161.84339 128.19183 z M 167.09526 128.19183 C 166.95671 128.19183 166.82911 128.21768 166.71286 128.26934 C 166.59779 128.32101 166.50656 128.39146 166.43846 128.4807 C 166.37153 128.56876 166.3382 128.6605 166.3382 128.75562 L 166.66532 128.75562 C 166.66532 128.67227 166.70499 128.60093 166.78366 128.54219 C 166.86233 128.48346 166.9599 128.45434 167.07614 128.45434 C 167.20882 128.45434 167.30879 128.48856 167.3769 128.55666 C 167.445 128.6236 167.47922 128.71355 167.47922 128.82745 L 167.47922 128.97731 L 167.16244 128.97731 C 166.88886 128.97731 166.67622 129.03282 166.52476 129.14319 C 166.37446 129.25239 166.29945 129.40623 166.29945 129.60466 C 166.29945 129.76787 166.359 129.90243 166.47876 130.00929 C 166.59971 130.11496 166.75444 130.16793 166.9423 130.16793 C 167.15248 130.16793 167.33292 130.08911 167.48439 129.93177 C 167.49612 130.02803 167.51158 130.09519 167.53038 130.13279 L 167.87196 130.13279 L 167.87196 130.10489 C 167.82736 130.00156 167.8053 129.8623 167.8053 129.68734 L 167.8053 128.80988 C 167.8006 128.61731 167.73597 128.46691 167.61151 128.35771 C 167.48705 128.24734 167.31484 128.19183 167.09526 128.19183 z M 169.19694 128.19183 C 168.95976 128.19183 168.77081 128.27394 168.63109 128.43832 L 168.6223 128.22697 L 168.31431 128.22697 L 168.31431 130.13279 L 168.63987 130.13279 L 168.63987 128.74166 C 168.71855 128.55967 168.86491 128.4683 169.07861 128.4683 C 169.34985 128.4683 169.4853 128.60719 169.4853 128.88429 L 169.4853 130.13279 L 169.81293 130.13279 L 169.81293 128.86827 C 169.82584 128.74616 169.87261 128.64948 169.95245 128.57785 C 170.03229 128.50505 170.13226 128.4683 170.25321 128.4683 C 170.40001 128.4683 170.50469 128.50252 170.56689 128.57062 C 170.62915 128.63755 170.66042 128.73931 170.66042 128.87551 L 170.66042 130.13279 L 170.98598 130.13279 L 170.98598 128.85587 C 170.97894 128.4132 170.76682 128.19183 170.34881 128.19183 C 170.21025 128.19183 170.08975 128.22024 169.98759 128.27658 C 169.88661 128.33294 169.8045 128.40668 169.7411 128.49827 C 169.64482 128.29396 169.46348 128.19183 169.19694 128.19183 z M 172.22777 128.19183 C 172.07629 128.19183 171.93539 128.23389 171.80505 128.31843 C 171.67589 128.4018 171.57503 128.51813 171.50223 128.66725 C 171.4306 128.8152 171.39474 128.9836 171.39474 129.17265 L 171.39474 129.23259 C 171.39474 129.51674 171.47558 129.74394 171.63762 129.9142 C 171.79966 130.08328 172.00975 130.16793 172.26808 130.16793 C 172.58745 130.16793 172.8272 130.0454 172.98689 129.8 L 172.78794 129.64497 C 172.72806 129.7225 172.65798 129.78459 172.57813 129.83152 C 172.49829 129.87852 172.40071 129.9018 172.28565 129.9018 C 172.12361 129.9018 171.98979 129.84427 171.88412 129.7292 C 171.77959 129.61296 171.72497 129.46129 171.72031 129.27342 L 173.01118 129.27342 L 173.01118 129.13751 C 173.01118 128.83339 172.94288 128.59998 172.80551 128.43677 C 172.66813 128.27356 172.47552 128.19183 172.22777 128.19183 z M 174.25503 128.19183 C 174.01902 128.19183 173.83478 128.27394 173.7021 128.43832 L 173.68608 128.22697 L 173.38842 128.22697 L 173.38842 130.86557 L 173.71398 130.86557 L 173.71398 129.94779 C 173.84666 130.09457 174.02889 130.16793 174.2602 130.16793 C 174.48682 130.16793 174.66651 130.07962 174.79919 129.90232 C 174.93187 129.72502 174.99814 129.49109 174.99814 129.20107 L 174.99814 129.1711 C 174.99814 128.86346 174.9315 128.62333 174.79764 128.45073 C 174.66496 128.27812 174.484 128.19183 174.25503 128.19183 z M 177.02902 128.19183 C 176.89047 128.19183 176.76287 128.21768 176.64662 128.26934 C 176.53155 128.32101 176.4398 128.39146 176.3717 128.4807 C 176.30477 128.56876 176.27145 128.6605 176.27145 128.75562 L 176.59908 128.75562 C 176.59908 128.67227 176.63875 128.60093 176.71742 128.54219 C 176.79609 128.48346 176.89315 128.45434 177.00939 128.45434 C 177.14207 128.45434 177.24256 128.48856 177.31066 128.55666 C 177.37877 128.6236 177.41298 128.71355 177.41298 128.82745 L 177.41298 128.97731 L 177.09569 128.97731 C 176.8221 128.97731 176.60947 129.03282 176.458 129.14319 C 176.30771 129.25239 176.23269 129.40623 176.23269 129.60466 C 176.23269 129.76787 176.29276 129.90243 176.41253 130.00929 C 176.53347 130.11496 176.68767 130.16793 176.87555 130.16793 C 177.08573 130.16793 177.26668 130.08911 177.41815 129.93177 C 177.42988 130.02803 177.44534 130.09519 177.46414 130.13279 L 177.80572 130.13279 L 177.80572 130.10489 C 177.76112 130.00156 177.73854 129.8623 177.73854 129.68734 L 177.73854 128.80988 C 177.73385 128.61731 177.66922 128.46691 177.54476 128.35771 C 177.4203 128.24734 177.2486 128.19183 177.02902 128.19183 z M 103.80197 128.22697 L 103.80197 129.4672 C 103.80314 129.69852 103.85649 129.87313 103.96217 129.99172 C 104.06902 130.10914 104.22412 130.16793 104.42725 130.16793 C 104.67266 130.16793 104.85855 130.0933 104.98536 129.94418 L 104.9926 130.13279 L 105.30265 130.13279 L 105.30265 128.22697 L 104.97658 128.22697 L 104.97658 129.61345 C 104.89438 129.79897 104.72889 129.89147 104.47996 129.89147 C 104.24513 129.89147 104.12805 129.74726 104.12805 129.45842 L 104.12805 128.22697 L 103.80197 128.22697 z M 158.52163 128.22697 L 158.52163 130.13279 L 158.84719 130.13279 L 158.84719 128.22697 L 158.52163 128.22697 z M 159.17999 128.22697 L 159.87038 130.13279 L 160.11895 130.13279 L 160.80211 128.22697 L 160.46931 128.22697 L 159.99751 129.69096 L 159.51278 128.22697 L 159.17999 128.22697 z M 179.29039 128.22697 L 178.84649 129.6553 L 178.37106 128.22748 L 178.01501 128.22748 L 178.69507 130.11212 L 178.62273 130.30591 C 178.58283 130.42452 178.53203 130.50574 178.46976 130.55034 C 178.40871 130.59494 178.32279 130.61752 178.21242 130.61752 L 178.12457 130.61028 L 178.12457 130.87435 L 178.246 130.89761 L 178.3075 130.90226 C 178.56582 130.90226 178.75425 130.74387 178.87284 130.42683 L 179.6392 128.22697 L 179.29039 128.22697 z M 102.51523 128.45951 C 102.52019 128.45939 102.52519 128.45951 102.53021 128.45951 C 102.6946 128.45951 102.82639 128.52452 102.92502 128.65485 C 103.02483 128.78401 103.07437 128.9533 103.07437 129.16231 C 103.07437 129.39598 103.02558 129.5782 102.92812 129.70853 C 102.83067 129.83769 102.69939 129.9018 102.53383 129.9018 C 102.36944 129.9018 102.23817 129.83807 102.13954 129.71008 C 102.04208 129.58209 101.99329 129.41242 101.99329 129.20107 C 101.99329 128.96271 102.04246 128.77973 102.14109 128.65175 C 102.23664 128.52776 102.36128 128.46339 102.51523 128.45951 z M 120.48674 128.45951 C 120.62294 128.45951 120.7309 128.50538 120.81075 128.59697 C 120.89059 128.68738 120.93519 128.81537 120.94459 128.98093 L 120.94459 129.00573 L 119.99013 129.00573 C 120.01127 128.83312 120.06626 128.69931 120.15549 128.60421 C 120.24473 128.50792 120.35523 128.45951 120.48674 128.45951 z M 125.5593 128.45951 C 125.6955 128.45951 125.80346 128.50538 125.88331 128.59697 C 125.96314 128.68738 126.00775 128.81537 126.01715 128.98093 L 126.01715 129.00573 L 125.06217 129.00573 C 125.0833 128.83312 125.13881 128.69931 125.22805 128.60421 C 125.31729 128.50792 125.42779 128.45951 125.5593 128.45951 z M 134.69414 128.45951 C 134.69911 128.45939 134.7041 128.45951 134.70913 128.45951 C 134.87351 128.45951 135.00479 128.52452 135.10342 128.65485 C 135.20323 128.78401 135.25328 128.9533 135.25328 129.16231 C 135.25328 129.39598 135.2045 129.5782 135.10704 129.70853 C 135.00958 129.83769 134.87779 129.9018 134.71223 129.9018 C 134.54784 129.9018 134.41657 129.83807 134.31794 129.71008 C 134.22048 129.58209 134.17169 129.41242 134.17169 129.20107 C 134.17169 128.96271 134.22085 128.77973 134.31949 128.65175 C 134.41504 128.52776 134.54019 128.46339 134.69414 128.45951 z M 142.79029 128.45951 C 142.79525 128.45939 142.80025 128.45951 142.80527 128.45951 C 142.96966 128.45951 143.10146 128.52452 143.20008 128.65485 C 143.29989 128.78401 143.34994 128.9533 143.34994 129.16231 C 143.34994 129.39598 143.30115 129.5782 143.2037 129.70853 C 143.10624 129.83769 142.97445 129.9018 142.80889 129.9018 C 142.64451 129.9018 142.51323 129.83807 142.4146 129.71008 C 142.31715 129.58209 142.26836 129.41242 142.26836 129.20107 C 142.26836 128.96271 142.31752 128.77973 142.41615 128.65175 C 142.5117 128.52776 142.63633 128.46339 142.79029 128.45951 z M 154.25212 128.45951 C 154.38833 128.45951 154.49629 128.50538 154.57613 128.59697 C 154.65597 128.68738 154.70057 128.81537 154.70997 128.98093 L 154.70997 129.00573 L 153.75551 129.00573 C 153.77664 128.83312 153.83163 128.69931 153.92087 128.60421 C 154.01011 128.50792 154.12061 128.45951 154.25212 128.45951 z M 161.84339 128.45951 C 161.9796 128.45951 162.08756 128.50538 162.1674 128.59697 C 162.24724 128.68738 162.29184 128.81537 162.30124 128.98093 L 162.30124 129.00573 L 161.34626 129.00573 C 161.36739 128.83312 161.4229 128.69931 161.51214 128.60421 C 161.60138 128.50792 161.71188 128.45951 161.84339 128.45951 z M 172.22777 128.45951 C 172.36397 128.45951 172.47193 128.50538 172.55178 128.59697 C 172.63162 128.68738 172.67622 128.81537 172.68562 128.98093 L 172.68562 129.00573 L 171.73116 129.00573 C 171.7523 128.83312 171.80728 128.69931 171.89652 128.60421 C 171.98575 128.50792 172.09625 128.45951 172.22777 128.45951 z M 136.74156 128.4683 C 136.94352 128.4683 137.09317 128.5584 137.19063 128.73805 L 137.19063 129.61345 C 137.09552 129.79897 136.9446 129.89147 136.73794 129.89147 C 136.5806 129.89147 136.45718 129.83064 136.36794 129.70853 C 136.2787 129.58642 136.2341 129.41712 136.2341 129.20107 C 136.2341 128.95919 136.2787 128.77659 136.36794 128.6533 C 136.45718 128.53001 136.58188 128.4683 136.74156 128.4683 z M 174.15788 128.4683 C 174.31757 128.4683 174.44353 128.53039 174.53512 128.65485 C 174.62671 128.77932 174.67206 128.94899 174.67206 129.16386 C 174.67206 129.40809 174.62581 129.59285 174.53305 129.71732 C 174.44147 129.8406 174.31767 129.90232 174.1615 129.90232 C 173.96071 129.90232 173.81144 129.81513 173.71398 129.64135 L 173.71398 128.73081 C 173.81261 128.55586 173.96062 128.4683 174.15788 128.4683 z M 98.872038 129.2083 C 98.884124 129.20807 98.89677 129.2083 98.909246 129.2083 L 99.164527 129.2083 L 99.164527 129.59898 C 99.12343 129.68349 99.057159 129.7523 98.965573 129.80517 C 98.873987 129.85803 98.776789 129.88423 98.674635 129.88423 C 98.567784 129.88423 98.480738 129.85546 98.412635 129.79793 C 98.344532 129.7404 98.310316 129.66082 98.310316 129.55867 C 98.310316 129.33231 98.497378 129.21538 98.872038 129.2083 z M 114.72895 129.2083 C 114.74104 129.20807 114.75368 129.2083 114.76616 129.2083 L 115.02144 129.2083 L 115.02144 129.59898 C 114.98034 129.68349 114.91407 129.7523 114.82249 129.80517 C 114.7309 129.85803 114.6337 129.88423 114.53155 129.88423 C 114.42469 129.88423 114.33713 129.85546 114.26903 129.79793 C 114.20092 129.7404 114.16723 129.66082 114.16723 129.55867 C 114.16723 129.33231 114.35429 129.21538 114.72895 129.2083 z M 167.18725 129.2083 C 167.19933 129.20807 167.21146 129.2083 167.22394 129.2083 L 167.47922 129.2083 L 167.47922 129.59898 C 167.43813 129.68349 167.37185 129.7523 167.28027 129.80517 C 167.18868 129.85803 167.092 129.88423 166.98984 129.88423 C 166.883 129.88423 166.79543 129.85546 166.72733 129.79793 C 166.65923 129.7404 166.62501 129.66082 166.62501 129.55867 C 166.62501 129.33231 166.81259 129.21538 167.18725 129.2083 z M 177.12049 129.2083 C 177.13258 129.20807 177.14522 129.2083 177.1577 129.2083 L 177.41298 129.2083 L 177.41298 129.59898 C 177.37188 129.68349 177.30561 129.7523 177.21403 129.80517 C 177.12244 129.85803 177.02524 129.88423 176.92309 129.88423 C 176.81624 129.88423 176.72867 129.85546 176.66057 129.79793 C 176.59247 129.7404 176.55877 129.66082 176.55877 129.55867 C 176.55877 129.33231 176.74583 129.21538 177.12049 129.2083 z "
       style="font-size:3.6071px;font-family:Roboto;-inkscape-font-specification:Roboto-Regular;fill:#ffffff;stroke-width:0.298417" />
    <path
       id="header"
       d="M 141.10512 107.16675 L 134.9086 123.43605 L 128.71208 107.19259 L 123.96921 125.93512 L 125.01463 125.93512 L 128.9162 110.60944 L 134.9086 126.394 L 140.901 110.63476 L 144.77725 125.93512 L 145.84798 125.93512 L 141.10512 107.16675 z M 167.67611 107.4732 C 164.95611 107.4732 162.71222 108.35672 160.94422 110.12471 C 159.19322 111.87571 158.31751 114.11128 158.31751 116.83128 C 158.31751 119.58528 159.19322 121.83801 160.94422 123.58901 C 162.67822 125.32301 164.92211 126.18988 167.67611 126.18988 C 170.5661 126.18988 172.88644 125.26321 174.63744 123.41021 C 176.25244 121.71021 177.06003 119.6192 177.06003 117.13721 L 169.89458 117.13721 L 169.89458 118.18314 L 175.91281 118.18314 C 175.74281 119.81513 175.06263 121.27692 173.87263 122.56892 C 172.30863 124.28591 170.2431 125.14447 167.67611 125.14447 C 165.27911 125.14447 163.28171 124.36236 161.68371 122.79836 C 160.11971 121.23436 159.3376 119.24528 159.3376 116.83128 C 159.3376 114.43428 160.12803 112.4452 161.70903 110.8642 C 163.29003 109.2832 165.27911 108.49277 167.67611 108.49277 C 170.6171 108.49277 172.90364 109.61498 174.53564 111.85897 L 175.37745 111.22129 C 173.50745 108.72229 170.9401 107.4732 167.67611 107.4732 z M 96.454615 107.72796 L 96.454615 125.93512 L 97.474708 125.93512 L 97.474708 116.44888 L 104.35956 116.44888 L 104.35956 115.40346 L 97.474708 115.40346 L 97.474708 108.77337 L 104.35956 108.77337 L 104.35956 107.72796 L 96.454615 107.72796 z M 110.25016 107.72796 L 110.25016 125.93512 L 118.99639 125.93512 L 118.99639 124.88919 L 111.29557 124.88919 L 111.29557 116.52536 L 118.99639 116.52536 L 118.99639 115.40346 L 111.29557 115.40346 L 111.29557 108.77337 L 118.99639 108.77337 L 118.99639 107.72796 L 110.25016 107.72796 z M 151.22853 107.72796 L 151.22853 125.93512 L 152.24863 125.93512 L 152.24863 107.72796 L 151.22853 107.72796 z M 106.85863 124.40498 C 106.29763 124.50698 106.01734 124.78727 106.01734 125.24627 C 106.03434 125.50127 106.1191 125.70564 106.2721 125.85864 C 106.4761 126.01164 106.67163 126.08808 106.85863 126.08808 C 107.41963 126.08808 107.69992 125.80727 107.69992 125.24627 C 107.56392 124.68527 107.28363 124.40498 106.85863 124.40498 z M 121.80139 124.40498 C 121.24039 124.50698 120.9601 124.78727 120.9601 125.24627 C 120.9771 125.50127 121.06238 125.70564 121.21538 125.85864 C 121.41938 126.01164 121.61439 126.08808 121.80139 126.08808 C 122.36239 126.08808 122.6432 125.80727 122.6432 125.24627 C 122.5072 124.68527 122.22639 124.40498 121.80139 124.40498 z M 147.68405 124.40498 C 147.12305 124.50698 146.84275 124.78727 146.84275 125.24627 C 146.85975 125.50127 146.94452 125.70564 147.09752 125.85864 C 147.30152 126.01164 147.49705 126.08808 147.68405 126.08808 C 148.24505 126.08808 148.52586 125.80727 148.52586 125.24627 C 148.38986 124.68527 148.10905 124.40498 147.68405 124.40498 z M 155.46187 124.40498 C 154.90087 124.50698 154.62006 124.78727 154.62006 125.24627 C 154.63706 125.50127 154.72234 125.70564 154.87534 125.85864 C 155.07934 126.01164 155.27487 126.08808 155.46187 126.08808 C 156.02287 126.08808 156.30316 125.80727 156.30316 125.24627 C 156.16716 124.68527 155.88687 124.40498 155.46187 124.40498 z M 179.30434 124.40498 C 178.74334 124.50698 178.46253 124.78727 178.46253 125.24627 C 178.47953 125.50127 178.56481 125.70564 178.71781 125.85864 C 178.92181 126.01164 179.11734 126.08808 179.30434 126.08808 C 179.86534 126.08808 180.14563 125.80727 180.14563 125.24627 C 180.00963 124.68527 179.72934 124.40498 179.30434 124.40498 z "
       style="font-weight:500;font-size:25.5px;font-family:GeosansLight;-inkscape-font-specification:GeosansLight;fill:#ffffff;stroke-width:0.352776" />
    <path
       d="m 79.543755,107.54091 h -0.79919 c -0.437054,0 -0.799188,0.35604 -0.799188,0.79919 v 1.36062 c -0.729259,-0.34815 -1.533444,-0.55944 -2.397566,-0.55944 l -2.44252,-4.9e-4 -5.138284,-3.08142 c -0.532459,-0.31962 -1.210271,0.0631 -1.210271,0.68435 v 2.958 c -1.885086,0.90009 -3.196754,2.80565 -3.196754,5.03339 0,2.96 2.306159,5.35956 5.214705,5.55436 l -3.520425,6.03388 c -0.31843,0.54944 -0.405841,1.20478 -0.237259,1.81715 0.162335,0.61838 0.568423,1.14284 1.117865,1.45503 l 2.766191,1.59837 c 0.555436,0.31843 1.204777,0.40584 1.823149,0.24351 0.611879,-0.16858 1.136346,-0.56843 1.454523,-1.11787 l 5.766646,-9.99011 v 0.75424 c 0,0.43706 0.362134,0.79919 0.799188,0.79919 h 0.79919 c 0.437056,0 0.793195,-0.3497 0.799187,-0.7867 v -12.76854 c -0.005,-0.43706 -0.359634,-0.7867 -0.799187,-0.7867 z m -10.389453,8.34802 c -0.661828,0 -1.198782,-0.53695 -1.198782,-1.19878 0,-0.66183 0.536954,-1.19878 1.198782,-1.19878 0.661828,0 1.198783,0.53695 1.198783,1.19878 0,0.70428 -0.534458,1.19878 -1.198783,1.19878 z m 4.795132,0 c -0.661828,0 -1.198783,-0.53695 -1.198783,-1.19878 0,-0.66183 0.536955,-1.19878 1.198783,-1.19878 0.661828,0 1.198783,0.53695 1.198783,1.19878 0,0.70428 -0.534457,1.19878 -1.198783,1.19878 z m 18.051674,-3.98095 c -0.212283,-0.14985 -0.474518,-0.19356 -0.718271,-0.11239 l -3.747195,1.25123 h -3.196755 v -3.10635 c 0,-0.4433 -0.355894,-0.79919 -0.79919,-0.79919 l -0.799188,-0.002 c -0.437057,0 -0.799189,0.35593 -0.799189,0.79918 v 9.59028 c 0,0.43726 0.362132,0.79919 0.799189,0.79919 l 0.799188,0.001 c 0.443296,0 0.79919,-0.36203 0.79919,-0.79918 v -3.28667 h 3.203247 l 3.733711,1.24873 c 0.243501,0.0812 0.511981,0.0374 0.724264,-0.11243 0.205791,-0.1523 0.330664,-0.39205 0.330664,-0.65179 v -4.17077 c 0,-0.25973 -0.124873,-0.49949 -0.329665,-0.64934 z"
       id="logo"
       style="fill:#ffffff;stroke-width:0.0499491" />
  </g>
</svg>
