<?xml version="1.0" encoding="UTF-8" standalone="no"?>
<!-- Created with Inkscape (http://www.inkscape.org/) -->

<svg
   width="440.63904"
   height="110.732"
   viewBox="0 0 116.58575 29.297842"
   version="1.1"
   id="svg537"
   xmlns="http://www.w3.org/2000/svg"
   xmlns:svg="http://www.w3.org/2000/svg">
  <defs
     id="defs534" />
  <g
     id="layer2">
    <path
       id="subheader"
       d="m 78.300131,24.387143 c -0.199611,0 -0.353821,0.05588 -0.463021,0.167432 -0.109199,0.111547 -0.163814,0.269565 -0.163814,0.473872 v 0.195337 h -0.301274 v 0.252181 h 0.301274 v 1.653646 h 0.325562 v -1.653646 h 0.40721 v -0.252181 h -0.40721 V 25.02328 c 0,-0.115068 0.02877,-0.203524 0.0863,-0.264584 0.05754,-0.06223 0.13927,-0.09302 0.244947,-0.09302 0.06223,0 0.12103,0.0055 0.176216,0.01602 l 0.01757,-0.264584 c -0.07397,-0.01996 -0.148611,-0.02997 -0.223759,-0.02997 z m -41.532865,0.03721 v 2.705261 h 0.326078 v -2.705261 z m 0.875399,0 v 2.705261 h 0.326078 v -2.705261 z m 11.004496,0 v 2.705261 h 0.326078 v -1.358056 c 0.04462,-0.09159 0.106707,-0.165332 0.186552,-0.221692 0.07984,-0.05636 0.172859,-0.08475 0.278536,-0.08475 0.130332,0 0.225744,0.03295 0.286804,0.0987 0.06221,0.06575 0.09389,0.167512 0.09509,0.304891 v 1.260905 h 0.326078 v -1.259354 c -0.0035,-0.45441 -0.206519,-0.681613 -0.609265,-0.681613 -0.231314,0 -0.419365,0.08883 -0.56379,0.266134 v -1.030428 z m 25.281661,0 v 0.993221 c -0.130335,-0.152644 -0.307105,-0.228927 -0.5302,-0.228927 -0.22427,0 -0.405599,0.08921 -0.544153,0.267684 -0.138554,0.177302 -0.207739,0.411978 -0.207739,0.70435 v 0.02481 c 0,0.291197 0.06919,0.527142 0.207739,0.707967 0.139728,0.180824 0.319788,0.271301 0.540535,0.271301 0.232489,0 0.413819,-0.07957 0.544153,-0.239262 l 0.01602,0.204122 h 0.299206 v -2.705261 z m 38.249868,0 v 2.705261 h 0.32556 v -2.705261 z m -16.753506,0.10542 c -0.0634,0 -0.111814,0.01838 -0.144694,0.05478 -0.03171,0.0364 -0.04754,0.081 -0.04754,0.133842 0,0.05284 0.01583,0.09707 0.04754,0.132292 0.03288,0.03523 0.08129,0.05271 0.144694,0.05271 0.0634,0 0.111297,-0.01748 0.144177,-0.05271 0.03288,-0.03522 0.04961,-0.07945 0.04961,-0.132292 0,-0.05284 -0.01673,-0.09744 -0.04961,-0.133842 -0.03288,-0.0364 -0.08077,-0.05478 -0.144177,-0.05478 z m 6.208416,0 c -0.32643,0 -0.57986,0.106316 -0.76068,0.318843 -0.17965,0.212528 -0.26975,0.512347 -0.26975,0.898654 v 0.223242 c 0.002,0.238359 0.0478,0.448078 0.13591,0.628902 0.0892,0.180824 0.21469,0.320464 0.37672,0.419096 0.16204,0.09746 0.34755,0.146244 0.55655,0.146244 0.20666,0 0.38761,-0.03041 0.54261,-0.09147 0.15616,-0.06223 0.27743,-0.155623 0.36432,-0.280086 v -0.940511 h -0.92966 v 0.274918 h 0.59324 v 0.575676 c -0.0622,0.06693 -0.14054,0.114447 -0.23564,0.142627 -0.0951,0.02818 -0.20599,0.04237 -0.3328,0.04237 -0.22427,0 -0.40231,-0.08465 -0.53382,-0.253731 -0.1315,-0.170257 -0.1974,-0.399105 -0.1974,-0.68678 v -0.209806 c 10e-4,-0.301766 0.06,-0.531882 0.17622,-0.690397 0.11742,-0.159689 0.28962,-0.239262 0.51624,-0.239262 0.34052,0 0.54225,0.169673 0.60565,0.509013 h 0.33797 c -0.0364,-0.251276 -0.136,-0.445155 -0.29921,-0.58136 -0.16321,-0.13738 -0.37876,-0.206189 -0.64647,-0.206189 z m -68.738966,0.03566 v 2.564184 h 0.337964 V 25.99687 h 1.07642 v -0.276469 h -1.07642 v -0.876949 h 1.250569 v -0.278019 z m 11.763623,0 v 2.564184 h 1.628841 V 26.853148 H 44.996221 V 25.94416 h 1.11156 v -0.276469 h -1.11156 v -0.824239 h 1.273307 v -0.278019 z m 22.912297,0 v 2.564184 h 0.337963 v -0.998388 l -0.03307,-1.072803 0.839742,2.071191 h 0.258898 l 0.84181,-2.076359 -0.03152,1.077971 v 0.998388 h 0.338481 v -2.564184 h -0.438733 l -0.838192,2.092378 -0.838709,-2.092378 z m 15.440918,0 v 2.564184 h 0.33848 V 24.565433 Z M 42.652178,24.76232 v 0.46147 h -0.347266 v 0.252181 h 0.347266 v 1.18184 c 0,0.162038 0.03661,0.287107 0.110587,0.375171 0.07397,0.08806 0.184098,0.131775 0.329696,0.131775 0.08102,0 0.164399,-0.01165 0.250114,-0.03514 v -0.264066 c -0.06575,0.01409 -0.117456,0.02119 -0.155029,0.02119 -0.07632,0 -0.130564,-0.01875 -0.162264,-0.05633 -0.0317,-0.03875 -0.04754,-0.09628 -0.04754,-0.1726 v -1.18184 h 0.356051 V 25.22379 h -0.356051 v -0.46147 z m 22.912296,0 v 0.46147 h -0.347265 v 0.252181 h 0.347265 v 1.18184 c 0,0.162038 0.03713,0.287107 0.111105,0.375171 0.07397,0.08806 0.183579,0.131775 0.329179,0.131775 0.08102,0 0.164398,-0.01165 0.250114,-0.03514 v -0.264066 c -0.06575,0.01409 -0.117456,0.02119 -0.15503,0.02119 -0.07632,0 -0.130564,-0.01875 -0.162264,-0.05633 -0.0317,-0.03875 -0.04754,-0.09628 -0.04754,-0.1726 v -1.18184 h 0.356051 V 25.22379 h -0.356051 v -0.46147 z m -30.045711,0.42633 c -0.138554,0 -0.266162,0.02585 -0.382405,0.07752 -0.115071,0.05166 -0.2063,0.122119 -0.274402,0.211357 -0.06693,0.08806 -0.100769,0.179809 -0.100769,0.274918 h 0.327628 c 0,-0.08337 0.03967,-0.154717 0.118339,-0.213423 0.07867,-0.05871 0.176245,-0.08785 0.292489,-0.08785 0.132683,0 0.232654,0.03422 0.300757,0.102319 0.0681,0.06693 0.102319,0.156889 0.102319,0.270785 v 0.149861 h -0.316776 c -0.273586,0 -0.486218,0.05551 -0.637688,0.165882 -0.150295,0.109199 -0.225826,0.263032 -0.225826,0.46147 0,0.163211 0.06007,0.297775 0.179834,0.404627 0.120941,0.105676 0.275151,0.158646 0.463021,0.158646 0.210179,0 0.391133,-0.07882 0.542603,-0.236161 0.01174,0.09628 0.0272,0.163448 0.04599,0.201021 h 0.341581 v -0.02842 c -0.04462,-0.103328 -0.06666,-0.242075 -0.06666,-0.417029 v -0.877465 c -0.0047,-0.192567 -0.06932,-0.343487 -0.193786,-0.452686 -0.124463,-0.110373 -0.296675,-0.165365 -0.516248,-0.165365 z m 3.749642,0 c -0.167908,0 -0.31756,0.04042 -0.449068,0.12144 -0.130335,0.08102 -0.232467,0.196077 -0.306441,0.345199 -0.0728,0.149121 -0.109038,0.317149 -0.109038,0.503845 v 0.02274 c 0,0.295895 0.07957,0.534002 0.239262,0.713652 0.160863,0.17965 0.370581,0.269234 0.628902,0.269234 0.171431,0 0.322727,-0.0408 0.454236,-0.12299 0.132683,-0.08219 0.23444,-0.196875 0.304891,-0.343648 0.07163,-0.147947 0.107487,-0.314707 0.107487,-0.500228 v -0.02274 c 0,-0.298243 -0.08047,-0.537101 -0.241329,-0.716752 C 39.737618,25.278753 39.5279,25.188651 39.268405,25.18865 Z m 8.278048,0 c -0.234837,0 -0.424909,0.09175 -0.570508,0.274919 l -0.01085,-0.239779 h -0.307992 v 1.905827 h 0.326079 v -1.358056 c 0.04462,-0.09159 0.106707,-0.165332 0.186552,-0.221692 0.07984,-0.05636 0.172342,-0.08475 0.278019,-0.08475 0.130332,0 0.226261,0.03295 0.287321,0.0987 0.06221,0.06575 0.09388,0.167512 0.09508,0.304891 v 1.260905 h 0.325562 v -1.259354 c -0.0035,-0.45441 -0.20652,-0.681613 -0.609265,-0.681613 z m 3.829223,0 c -0.138553,0 -0.266161,0.02585 -0.382405,0.07752 -0.11507,0.05166 -0.206816,0.122119 -0.274919,0.211357 -0.06693,0.08806 -0.100252,0.179809 -0.100252,0.274918 h 0.327629 c 0,-0.08337 0.03967,-0.154717 0.118339,-0.213423 0.07867,-0.05871 0.175727,-0.08785 0.291971,-0.08785 0.132683,0 0.233171,0.03422 0.301274,0.102319 0.0681,0.06693 0.102319,0.156889 0.102319,0.270785 v 0.149861 h -0.317293 c -0.273585,0 -0.486217,0.05551 -0.637687,0.165882 -0.150296,0.109199 -0.225309,0.263032 -0.225309,0.46147 0,0.163211 0.06007,0.297775 0.179834,0.404627 0.120941,0.105676 0.275151,0.158646 0.46302,0.158646 0.21018,0 0.391133,-0.07882 0.542603,-0.236161 0.01174,0.09628 0.02721,0.163448 0.04599,0.201021 h 0.341581 v -0.02842 c -0.04462,-0.103328 -0.06718,-0.242075 -0.06718,-0.417029 v -0.877465 c -0.0047,-0.192567 -0.06932,-0.343487 -0.193787,-0.452686 -0.124463,-0.110373 -0.296158,-0.165365 -0.515731,-0.165365 z m 2.109949,0 c -0.234837,0 -0.424908,0.09175 -0.570508,0.274919 l -0.01085,-0.239779 h -0.307991 v 1.905827 h 0.325561 v -1.358056 c 0.04462,-0.09159 0.107224,-0.165332 0.187069,-0.221692 0.07984,-0.05636 0.172343,-0.08475 0.278019,-0.08475 0.130333,0 0.226261,0.03295 0.287321,0.0987 0.06221,0.06575 0.09389,0.167512 0.09508,0.304891 v 1.260905 h 0.325561 v -1.259354 c -0.0035,-0.45441 -0.206519,-0.681613 -0.609265,-0.681613 z m 1.863452,0 c -0.17378,0 -0.324699,0.04004 -0.452685,0.11989 -0.126812,0.07984 -0.224386,0.191989 -0.292489,0.336413 -0.0681,0.144425 -0.102319,0.309539 -0.102319,0.495061 v 0.05426 c 0,0.300591 0.0768,0.537805 0.229443,0.711584 0.153818,0.172605 0.360106,0.258899 0.619601,0.258899 0.12916,0 0.251316,-0.02914 0.366386,-0.08785 0.116244,-0.05871 0.209259,-0.13753 0.278535,-0.236161 0.06928,-0.09863 0.106788,-0.20241 0.112655,-0.311609 h -0.308508 c -0.0094,0.105677 -0.05729,0.193615 -0.144177,0.264067 -0.08689,0.07045 -0.188647,0.105936 -0.304891,0.105936 -0.167909,0 -0.297161,-0.05969 -0.387574,-0.178283 -0.09041,-0.118594 -0.135392,-0.287374 -0.135392,-0.506946 v -0.06201 c 0,-0.225443 0.04498,-0.397138 0.135392,-0.515731 0.09159,-0.119767 0.220463,-0.179834 0.386023,-0.179834 0.12329,0 0.226692,0.04004 0.310059,0.11989 0.08454,0.07867 0.131166,0.179534 0.14056,0.302824 h 0.308508 c -0.0094,-0.204308 -0.0853,-0.370175 -0.227376,-0.498161 -0.140903,-0.127986 -0.31805,-0.192237 -0.531751,-0.192237 z m 1.875855,0 c -0.15147,0 -0.292379,0.04258 -0.422713,0.127124 -0.129161,0.08337 -0.230542,0.199178 -0.303341,0.3483 -0.07162,0.147947 -0.10697,0.316868 -0.10697,0.505912 v 0.05943 c 0,0.284152 0.08084,0.511355 0.242879,0.681612 0.162038,0.169082 0.372132,0.253731 0.630452,0.253731 0.319379,0 0.55913,-0.122532 0.71882,-0.367936 l -0.198955,-0.155029 c -0.05988,0.0775 -0.129961,0.139585 -0.209806,0.186552 -0.07984,0.04697 -0.177419,0.0708 -0.292489,0.0708 -0.162037,0 -0.295849,-0.05753 -0.401525,-0.172599 -0.104533,-0.116244 -0.159148,-0.268433 -0.163815,-0.456303 h 1.290878 v -0.135909 c 0,-0.304114 -0.06829,-0.53752 -0.205673,-0.700732 -0.137379,-0.163211 -0.329989,-0.244947 -0.577742,-0.244947 z m 2.041219,0 c -0.237185,0 -0.425612,0.08211 -0.56534,0.246497 l -0.0088,-0.211357 h -0.308494 v 1.905827 h 0.326079 v -1.391646 c 0.07867,-0.181999 0.225032,-0.272852 0.438733,-0.272852 0.271237,0 0.406693,0.138888 0.406693,0.415996 v 1.248502 h 0.327629 v -1.264522 c 0.01292,-0.122115 0.05917,-0.218796 0.139009,-0.290422 0.07985,-0.0728 0.180333,-0.109554 0.301274,-0.109554 0.146771,0 0.251443,0.03422 0.313676,0.10232 0.06223,0.06693 0.09302,0.168685 0.09302,0.304891 v 1.257287 h 0.326079 v -1.276924 c -0.007,-0.442668 -0.219678,-0.664043 -0.637687,-0.664043 -0.138554,0 -0.259065,0.02839 -0.361219,0.08475 -0.10098,0.05636 -0.18309,0.130105 -0.246496,0.221692 -0.09628,-0.204308 -0.277613,-0.306442 -0.544153,-0.306442 z m 3.031339,0 c -0.151469,0 -0.292378,0.04258 -0.422713,0.127124 -0.12916,0.08337 -0.230541,0.199178 -0.30334,0.3483 -0.07163,0.147947 -0.107487,0.316868 -0.107487,0.505912 v 0.05943 c 0,0.284152 0.08136,0.511355 0.243396,0.681612 0.162037,0.169082 0.372132,0.253731 0.630452,0.253731 0.319378,0 0.55913,-0.122532 0.718819,-0.367936 l -0.199471,-0.155029 c -0.05988,0.0775 -0.129445,0.139585 -0.209289,0.186552 -0.07984,0.04697 -0.177419,0.0708 -0.292489,0.0708 -0.162038,0 -0.295849,-0.05753 -0.401526,-0.172599 -0.104532,-0.116244 -0.159147,-0.268433 -0.163814,-0.456303 h 1.290877 v -0.135909 c 0,-0.304114 -0.06881,-0.53752 -0.206189,-0.700732 -0.137379,-0.163211 -0.329473,-0.244947 -0.577226,-0.244947 z m 2.050004,0 c -0.234837,0 -0.425425,0.09175 -0.571024,0.274919 L 63.76613,25.22379 h -0.307992 v 1.905827 H 63.7837 v -1.358056 c 0.04462,-0.09159 0.106707,-0.165332 0.186552,-0.221692 0.07984,-0.05636 0.172859,-0.08475 0.278535,-0.08475 0.130332,0 0.225745,0.03295 0.286805,0.0987 0.06221,0.06575 0.0944,0.167512 0.0956,0.304891 v 1.260905 h 0.325562 v -1.259354 c -0.0035,-0.45441 -0.206521,-0.681613 -0.609266,-0.681613 z m 7.099826,0 c -0.167909,0 -0.318077,0.04042 -0.449585,0.12144 -0.130335,0.08102 -0.232468,0.196077 -0.306442,0.345199 -0.0728,0.149121 -0.109037,0.317149 -0.109037,0.503845 v 0.02274 c 0,0.295895 0.08009,0.534002 0.239779,0.713652 0.160863,0.17965 0.370064,0.269234 0.628385,0.269234 0.171431,0 0.323243,-0.0408 0.454753,-0.12299 0.132682,-0.08219 0.233923,-0.196875 0.304374,-0.343648 0.07163,-0.147947 0.107487,-0.314707 0.107487,-0.500228 v -0.02274 c 0,-0.298243 -0.08047,-0.537101 -0.241329,-0.716752 -0.159689,-0.179649 -0.36889,-0.269751 -0.628385,-0.269752 z m 4.003373,0 c -0.205483,0 -0.37478,0.05424 -0.507463,0.162264 -0.131508,0.108026 -0.197404,0.240192 -0.197404,0.396359 0,0.09394 0.02294,0.174776 0.06873,0.242879 0.04697,0.06811 0.118691,0.126903 0.214974,0.176216 0.09746,0.04931 0.228355,0.09138 0.392741,0.126608 0.165561,0.03523 0.280995,0.07729 0.346749,0.126607 0.06693,0.04814 0.100769,0.116575 0.100769,0.204639 0,0.08336 -0.03751,0.150011 -0.112655,0.200504 -0.07397,0.04931 -0.172816,0.07441 -0.296106,0.07441 -0.133857,0 -0.241818,-0.03219 -0.324011,-0.0956 -0.08102,-0.06458 -0.124358,-0.15125 -0.130225,-0.260449 h -0.326078 c 0,0.112722 0.03295,0.217769 0.0987,0.315226 0.06693,0.09628 0.15905,0.171296 0.276469,0.225309 0.117418,0.05401 0.252499,0.08113 0.405143,0.08113 0.217224,0 0.393995,-0.05081 0.5302,-0.152962 0.136206,-0.103329 0.204122,-0.240054 0.204122,-0.410311 0,-0.102155 -0.02458,-0.188448 -0.0739,-0.258899 -0.04814,-0.07162 -0.122779,-0.132958 -0.223759,-0.183451 -0.10098,-0.05049 -0.233147,-0.09383 -0.396358,-0.130225 -0.162037,-0.0364 -0.274181,-0.0748 -0.336414,-0.114721 -0.06223,-0.03992 -0.09302,-0.0991 -0.09302,-0.177767 0,-0.08337 0.03332,-0.150905 0.100253,-0.202572 0.06693,-0.05167 0.159943,-0.07751 0.278536,-0.07751 0.11507,0 0.210106,0.03257 0.285254,0.09715 0.07632,0.06458 0.114205,0.141239 0.114205,0.230477 h 0.327628 c 0,-0.173779 -0.06754,-0.316333 -0.202571,-0.427881 -0.133858,-0.111547 -0.308466,-0.167432 -0.524516,-0.167432 z m 4.092773,0 c -0.167908,0 -0.317559,0.04042 -0.449068,0.12144 -0.130335,0.08102 -0.232468,0.196077 -0.306441,0.345199 -0.0728,0.149121 -0.109038,0.317149 -0.109038,0.503845 v 0.02274 c 0,0.295895 0.08009,0.534002 0.239779,0.713652 0.160864,0.17965 0.370065,0.269234 0.628386,0.269234 0.171431,0 0.323244,-0.0408 0.454752,-0.12299 0.132683,-0.08219 0.233924,-0.196875 0.304374,-0.343648 0.07163,-0.147947 0.107487,-0.314707 0.107487,-0.500228 v -0.02274 c 0,-0.298243 -0.08047,-0.537101 -0.241329,-0.716752 -0.159689,-0.179649 -0.369407,-0.269751 -0.628902,-0.269752 z m 2.055689,0 c -0.19609,0 -0.347386,0.08503 -0.454236,0.255282 l -0.0057,-0.220142 h -0.316776 v 1.905827 h 0.325561 v -1.352889 c 0.07632,-0.181998 0.221414,-0.272851 0.435116,-0.272851 0.05754,0 0.110884,0.0042 0.160197,0.0124 v -0.302824 c -0.03288,-0.01644 -0.08077,-0.02481 -0.144177,-0.02481 z m 3.198254,0 c -0.237186,0 -0.425612,0.08211 -0.56534,0.246497 l -0.0088,-0.211357 h -0.307992 v 1.905827 h 0.325562 v -1.391646 c 0.07867,-0.181999 0.225031,-0.272852 0.438733,-0.272852 0.271237,0 0.406693,0.138888 0.406693,0.415996 v 1.248502 h 0.327629 v -1.264522 c 0.01292,-0.122115 0.05968,-0.218796 0.139526,-0.290422 0.07985,-0.0728 0.179817,-0.109554 0.300757,-0.109554 0.146772,0 0.251443,0.03422 0.313676,0.10232 0.06223,0.06693 0.09353,0.168685 0.09353,0.304891 v 1.257287 h 0.325562 v -1.276924 c -0.007,-0.442668 -0.219677,-0.664043 -0.637687,-0.664043 -0.138554,0 -0.258548,0.02839 -0.360702,0.08475 -0.100979,0.05636 -0.18309,0.130105 -0.246496,0.221692 -0.09628,-0.204308 -0.27813,-0.306442 -0.54467,-0.306442 z m 3.161564,0 c -0.237185,0 -0.425611,0.08211 -0.56534,0.246497 l -0.0088,-0.211357 h -0.307992 v 1.905827 h 0.325562 v -1.391646 c 0.07867,-0.181999 0.225031,-0.272852 0.438733,-0.272852 0.271237,0 0.406693,0.138888 0.406693,0.415996 v 1.248502 h 0.327629 v -1.264522 c 0.01292,-0.122115 0.05917,-0.218796 0.13901,-0.290422 0.07984,-0.0728 0.180332,-0.109554 0.301273,-0.109554 0.146771,0 0.251443,0.03422 0.313676,0.10232 0.06223,0.06693 0.09353,0.168685 0.09353,0.304891 v 1.257287 h 0.325562 v -1.276924 c -0.007,-0.442668 -0.219678,-0.664043 -0.637687,-0.664043 -0.138554,0 -0.258547,0.02839 -0.360702,0.08475 -0.100979,0.05636 -0.183606,0.130105 -0.247013,0.221692 -0.09628,-0.204308 -0.277613,-0.306442 -0.544153,-0.306442 z m 3.03134,0 c -0.151471,0 -0.292379,0.04258 -0.422714,0.127124 -0.129159,0.08337 -0.230024,0.199178 -0.302823,0.3483 -0.07163,0.147947 -0.107487,0.316868 -0.107487,0.505912 v 0.05943 c 0,0.284152 0.08084,0.511355 0.242879,0.681612 0.162037,0.169082 0.372131,0.253731 0.630452,0.253731 0.319379,0 0.55913,-0.122532 0.718819,-0.367936 l -0.198954,-0.155029 c -0.05988,0.0775 -0.129962,0.139585 -0.209806,0.186552 -0.07985,0.04697 -0.177419,0.0708 -0.292489,0.0708 -0.162038,0 -0.295849,-0.05753 -0.401526,-0.172599 -0.104532,-0.116244 -0.159147,-0.268433 -0.163814,-0.456303 h 1.291394 v -0.135909 c 0,-0.304114 -0.06881,-0.53752 -0.206189,-0.700732 -0.13738,-0.163211 -0.32999,-0.244947 -0.577742,-0.244947 z m 1.937349,0 c -0.196088,0 -0.347384,0.08503 -0.454236,0.255282 l -0.0057,-0.220142 h -0.316777 v 1.905827 h 0.325562 v -1.352889 c 0.07632,-0.181998 0.221414,-0.272851 0.435115,-0.272851 0.05754,0 0.110884,0.0042 0.160197,0.0124 l 5.17e-4,-0.302824 c -0.03288,-0.01644 -0.08129,-0.02481 -0.144694,-0.02481 z m 1.134298,0 c -0.205482,0 -0.37478,0.05424 -0.507463,0.162264 -0.131508,0.108026 -0.196887,0.240192 -0.196887,0.396359 0,0.09394 0.02294,0.174776 0.06873,0.242879 0.04697,0.06811 0.118174,0.126903 0.214457,0.176216 0.09746,0.04931 0.228355,0.09138 0.392741,0.126608 0.165561,0.03523 0.281512,0.07729 0.347265,0.126607 0.06693,0.04814 0.100253,0.116575 0.100253,0.204639 0,0.08336 -0.03751,0.150011 -0.112655,0.200504 -0.07397,0.04931 -0.172817,0.07441 -0.296106,0.07441 -0.133857,0 -0.241819,-0.03219 -0.324011,-0.0956 -0.08102,-0.06458 -0.124358,-0.15125 -0.130225,-0.260449 h -0.325561 c 0,0.112722 0.03243,0.217769 0.09819,0.315226 0.06693,0.09628 0.15905,0.171296 0.276469,0.225309 0.117418,0.05401 0.252499,0.08113 0.405143,0.08113 0.217225,0 0.393995,-0.05081 0.5302,-0.152962 0.136206,-0.103329 0.204639,-0.240054 0.204639,-0.410311 0,-0.102155 -0.0251,-0.188448 -0.07441,-0.258899 -0.04814,-0.07162 -0.122262,-0.132958 -0.223242,-0.183451 -0.10098,-0.05049 -0.233147,-0.09383 -0.396359,-0.130225 -0.162036,-0.0364 -0.27418,-0.0748 -0.336413,-0.114721 -0.06223,-0.03992 -0.09353,-0.0991 -0.09353,-0.177767 0,-0.08337 0.03332,-0.150905 0.100252,-0.202572 0.06693,-0.05167 0.159943,-0.07751 0.278536,-0.07751 0.11507,0 0.210106,0.03257 0.285254,0.09715 0.07632,0.06458 0.114721,0.141239 0.114721,0.230477 h 0.327629 c 0,-0.173779 -0.06754,-0.316333 -0.202572,-0.427881 -0.133857,-0.111547 -0.308982,-0.167432 -0.525032,-0.167432 z m 4.519621,0 c -0.15147,0 -0.292379,0.04258 -0.422714,0.127124 -0.12916,0.08337 -0.23054,0.199178 -0.30334,0.3483 -0.07163,0.147947 -0.107487,0.316868 -0.107487,0.505912 v 0.05943 c 0,0.284152 0.08136,0.511355 0.243396,0.681612 0.162037,0.169082 0.372131,0.253731 0.630452,0.253731 0.319379,0 0.55913,-0.122532 0.718819,-0.367936 l -0.199471,-0.155029 c -0.05988,0.0775 -0.129445,0.139585 -0.209289,0.186552 -0.07985,0.04697 -0.177419,0.0708 -0.292489,0.0708 -0.162038,0 -0.295849,-0.05753 -0.401526,-0.172599 -0.104532,-0.116244 -0.159147,-0.268433 -0.163814,-0.456303 h 1.290877 v -0.135909 c 0,-0.304114 -0.06829,-0.53752 -0.205672,-0.700732 -0.13738,-0.163211 -0.329989,-0.244947 -0.577742,-0.244947 z m 5.251879,0 c -0.13855,0 -0.26616,0.02585 -0.3824,0.07752 -0.11508,0.05166 -0.20631,0.122119 -0.27441,0.211357 -0.0669,0.08806 -0.10025,0.179809 -0.10025,0.274918 h 0.32711 c 0,-0.08337 0.0397,-0.154717 0.11834,-0.213423 0.0787,-0.05871 0.17625,-0.08785 0.29249,-0.08785 0.13269,0 0.23266,0.03422 0.30076,0.102319 0.0681,0.06693 0.10232,0.156889 0.10232,0.270785 v 0.149861 h -0.31678 c -0.27358,0 -0.48621,0.05551 -0.63769,0.165882 -0.15029,0.109199 -0.2253,0.263032 -0.2253,0.46147 0,0.163211 0.0596,0.297775 0.17931,0.404627 0.12094,0.105676 0.27567,0.158646 0.46354,0.158646 0.21017,0 0.39061,-0.07882 0.54209,-0.236161 0.0117,0.09628 0.0272,0.163448 0.046,0.201021 h 0.34158 v -0.02842 c -0.0446,-0.103328 -0.0667,-0.242075 -0.0667,-0.417029 v -0.877465 c -0.005,-0.192567 -0.0693,-0.343487 -0.19379,-0.452686 -0.12446,-0.110373 -0.29667,-0.165365 -0.51625,-0.165365 z m 2.10168,0 c -0.23718,0 -0.42612,0.08211 -0.56585,0.246497 l -0.009,-0.211357 h -0.30799 v 1.905827 h 0.32556 v -1.391646 c 0.0787,-0.181999 0.22503,-0.272852 0.43873,-0.272852 0.27124,0 0.4067,0.138888 0.4067,0.415996 v 1.248502 h 0.32763 v -1.264522 c 0.0129,-0.122115 0.0597,-0.218796 0.13952,-0.290422 0.0798,-0.0728 0.17982,-0.109554 0.30076,-0.109554 0.14674,0 0.25141,0.03422 0.31368,0.10232 0.0623,0.06693 0.0935,0.168685 0.0935,0.304891 v 1.257287 h 0.32556 v -1.276924 c -0.007,-0.442668 -0.21916,-0.664043 -0.63717,-0.664043 -0.13855,0 -0.25906,0.02839 -0.36122,0.08475 -0.10098,0.05636 -0.18309,0.130105 -0.24649,0.221692 -0.0963,-0.204308 -0.27762,-0.306442 -0.54416,-0.306442 z m 3.03083,0 c -0.15147,0 -0.29238,0.04258 -0.42272,0.127124 -0.12916,0.08337 -0.23002,0.199178 -0.30282,0.3483 -0.0716,0.147947 -0.10749,0.316868 -0.10749,0.505912 v 0.05943 c 0,0.284152 0.0808,0.511355 0.24288,0.681612 0.16204,0.169082 0.37213,0.253731 0.63045,0.253731 0.31938,0 0.55914,-0.122532 0.71882,-0.367936 l -0.19895,-0.155029 c -0.0599,0.0775 -0.12997,0.139585 -0.20981,0.186552 -0.0798,0.04697 -0.17741,0.0708 -0.29249,0.0708 -0.16203,0 -0.29584,-0.05753 -0.40152,-0.172599 -0.10454,-0.116244 -0.15915,-0.268433 -0.16382,-0.456303 h 1.2914 v -0.135909 c 0,-0.304114 -0.0688,-0.53752 -0.20619,-0.700732 -0.13738,-0.163211 -0.32999,-0.244947 -0.57774,-0.244947 z m 2.02726,0 c -0.236,0 -0.42025,0.08211 -0.55294,0.246497 l -0.016,-0.211357 h -0.29765 v 2.638599 h 0.32556 v -0.917773 c 0.13269,0.146773 0.31491,0.220141 0.54622,0.220141 0.22661,0 0.4063,-0.08832 0.53898,-0.265617 0.13268,-0.177302 0.19896,-0.411225 0.19896,-0.701249 v -0.02997 c 0,-0.307637 -0.0666,-0.547765 -0.20051,-0.72037 -0.13268,-0.172605 -0.31363,-0.258899 -0.5426,-0.258899 z m 2.77399,0 c -0.13855,0 -0.26616,0.02585 -0.3824,0.07752 -0.11508,0.05166 -0.2063,0.122119 -0.2744,0.211357 -0.0669,0.08806 -0.10077,0.179809 -0.10077,0.274918 h 0.32763 c 0,-0.08337 0.0397,-0.154717 0.11833,-0.213423 0.0787,-0.05871 0.17573,-0.08785 0.29198,-0.08785 0.13268,0 0.23316,0.03422 0.30127,0.102319 0.0681,0.06693 0.10232,0.156889 0.10232,0.270785 v 0.149861 h -0.31729 c -0.27359,0 -0.48571,0.05551 -0.63717,0.165882 -0.1503,0.109199 -0.22583,0.263032 -0.22583,0.46147 0,0.163211 0.0601,0.297775 0.17983,0.404627 0.12094,0.105676 0.27516,0.158646 0.46302,0.158646 0.21018,0 0.39113,-0.07882 0.54261,-0.236161 0.0117,0.09628 0.0272,0.163448 0.046,0.201021 h 0.34158 v -0.02842 c -0.0446,-0.103328 -0.0672,-0.242075 -0.0672,-0.417029 v -0.877465 c -0.005,-0.192567 -0.0693,-0.343487 -0.19379,-0.452686 -0.12446,-0.110373 -0.29615,-0.165365 -0.51573,-0.165365 z m -73.227058,0.03514 v 1.240235 c 0.0012,0.231314 0.05452,0.405923 0.160197,0.524516 0.106851,0.117418 0.261953,0.176216 0.465088,0.176216 0.245404,0 0.431294,-0.07464 0.558105,-0.223759 l 0.0072,0.188619 h 0.310059 v -1.905833 h -0.326044 v 1.386479 c -0.08219,0.185521 -0.247683,0.278019 -0.49661,0.278019 -0.234837,0 -0.351917,-0.144199 -0.351917,-0.433048 v -1.23145 z m 54.719658,0 v 1.905827 h 0.325561 V 25.22379 Z m 0.658357,0 0.690397,1.905827 h 0.248564 L 97.5403,25.22379 h -0.332796 l -0.471806,1.463994 -0.484725,-1.463994 z m 18.835553,0 0.67954,1.88464 -0.0724,0.193786 c -0.0399,0.118592 -0.0907,0.200327 -0.15296,0.244947 -0.0611,0.04462 -0.14697,0.06666 -0.25735,0.06666 l -0.0879,-0.0067 v 0.264067 l 0.12144,0.02274 0.0615,0.0052 c 0.25832,0 0.44674,-0.158393 0.56534,-0.475423 l 0.76636,-2.199866 h -0.34872 l -0.4439,1.428337 -0.47542,-1.428337 z m -75.485325,0.232544 c 0.164386,0 0.296176,0.065 0.394808,0.195337 0.09981,0.129161 0.149345,0.298458 0.149345,0.507463 0,0.233662 -0.04879,0.415885 -0.146244,0.54622 -0.09746,0.12916 -0.228732,0.193786 -0.394292,0.193786 -0.164386,0 -0.295659,-0.06425 -0.394291,-0.192236 -0.09746,-0.127986 -0.146244,-0.29766 -0.146244,-0.509013 0,-0.23836 0.04916,-0.421334 0.147795,-0.54932 0.09863,-0.127987 0.22826,-0.192237 0.389123,-0.192237 z m 17.956527,0 c 0.136205,0 0.244166,0.04587 0.324011,0.13746 0.07984,0.09041 0.124449,0.218395 0.133842,0.383956 v 0.0248 h -0.954464 c 0.02114,-0.172605 0.07613,-0.306416 0.165365,-0.401526 0.08924,-0.09628 0.199737,-0.144694 0.331246,-0.144694 z m 5.072558,0 c 0.136206,0 0.244167,0.04587 0.324012,0.13746 0.07984,0.09041 0.124448,0.218395 0.133842,0.383956 v 0.0248 h -0.954981 c 0.02114,-0.172605 0.07664,-0.306416 0.165881,-0.401526 0.08924,-0.09628 0.199737,-0.144694 0.331246,-0.144694 z m 9.14983,0 c 0.164385,0 0.295659,0.065 0.394291,0.195337 0.09981,0.129161 0.149861,0.298458 0.149861,0.507463 0,0.233662 -0.04879,0.415885 -0.146244,0.54622 -0.09746,0.12916 -0.229248,0.193786 -0.394808,0.193786 -0.164386,0 -0.295659,-0.06425 -0.394291,-0.192236 -0.09746,-0.127986 -0.146244,-0.29766 -0.146244,-0.509013 0,-0.23836 0.04916,-0.421334 0.147794,-0.54932 0.09863,-0.127987 0.228777,-0.192237 0.389641,-0.192237 z m 8.096146,0 c 0.164386,0 0.296177,0.065 0.394808,0.195337 0.09981,0.129161 0.149862,0.298458 0.149862,0.507463 0,0.233662 -0.04879,0.415885 -0.146245,0.54622 -0.09746,0.12916 -0.229248,0.193786 -0.394807,0.193786 -0.164386,0 -0.29566,-0.06425 -0.394292,-0.192236 -0.09746,-0.127986 -0.146244,-0.29766 -0.146244,-0.509013 0,-0.23836 0.04916,-0.421334 0.147795,-0.54932 0.09863,-0.127987 0.228259,-0.192237 0.389123,-0.192237 z m 11.446847,0 c 0.136205,0 0.244166,0.04587 0.324011,0.13746 0.07984,0.09041 0.124449,0.218395 0.133842,0.383956 v 0.0248 h -0.954464 c 0.02113,-0.172605 0.07613,-0.306416 0.165365,-0.401526 0.08924,-0.09628 0.199736,-0.144694 0.331246,-0.144694 z m 7.591268,0 c 0.136205,0 0.244166,0.04587 0.324011,0.13746 0.07984,0.09041 0.124448,0.218395 0.133842,0.383956 v 0.0248 h -0.954981 c 0.02114,-0.172605 0.07664,-0.306416 0.165882,-0.401526 0.08924,-0.09628 0.199737,-0.144694 0.331246,-0.144694 z m 10.384389,0 c 0.1362,0 0.24416,0.04587 0.32401,0.13746 0.0798,0.09041 0.12444,0.218395 0.13384,0.383956 v 0.0248 h -0.95446 c 0.0211,-0.172605 0.0761,-0.306416 0.16536,-0.401526 0.0892,-0.09628 0.19974,-0.144694 0.33125,-0.144694 z m -35.486216,0.0088 c 0.201959,0 0.351611,0.0901 0.449068,0.269751 v 0.875399 c -0.09511,0.185521 -0.246029,0.278019 -0.452686,0.278019 -0.15734,0 -0.280765,-0.06082 -0.370003,-0.182934 -0.08924,-0.122116 -0.133842,-0.291413 -0.133842,-0.507463 0,-0.241882 0.0446,-0.424481 0.133842,-0.54777 0.08924,-0.12329 0.213931,-0.185002 0.373621,-0.185002 z m 37.416326,0 c 0.15969,0 0.28565,0.06209 0.37724,0.186552 0.0916,0.124464 0.13746,0.294137 0.13746,0.509013 0,0.244231 -0.0468,0.428991 -0.13953,0.553455 -0.0916,0.12329 -0.21539,0.185001 -0.37155,0.185001 -0.20079,0 -0.35006,-0.08719 -0.44752,-0.260966 v -0.910538 c 0.0986,-0.174954 0.24664,-0.262517 0.4439,-0.262517 z m -75.285333,0.740007 c 0.01209,-2.28e-4 0.02421,0 0.03669,0 h 0.255281 v 0.390674 c -0.0411,0.08454 -0.107368,0.153349 -0.198954,0.206189 -0.09159,0.05284 -0.188785,0.07906 -0.290938,0.07906 -0.106852,0 -0.193897,-0.02877 -0.262,-0.0863 -0.0681,-0.05754 -0.102319,-0.137107 -0.102319,-0.239262 0,-0.22636 0.187578,-0.343292 0.562239,-0.350366 z m 15.856397,0 c 0.01209,-2.28e-4 0.02473,0 0.03721,0 h 0.255281 v 0.390674 c -0.0411,0.08454 -0.107367,0.153349 -0.198954,0.206189 -0.09159,0.05284 -0.188784,0.07906 -0.290938,0.07906 -0.106851,0 -0.194414,-0.02877 -0.262517,-0.0863 -0.0681,-0.05754 -0.101802,-0.137107 -0.101802,-0.239262 0,-0.22636 0.187061,-0.343292 0.561723,-0.350366 z m 52.458306,0 c 0.0121,-2.28e-4 0.0242,0 0.0367,0 h 0.25528 v 0.390674 c -0.0411,0.08454 -0.10737,0.153349 -0.19896,0.206189 -0.0916,0.05284 -0.18826,0.07906 -0.29042,0.07906 -0.10685,0 -0.19441,-0.02877 -0.26251,-0.0863 -0.0681,-0.05754 -0.10232,-0.137107 -0.10232,-0.239262 0,-0.22636 0.18757,-0.343292 0.56224,-0.350366 z m 9.93324,0 c 0.0121,-2.28e-4 0.0247,0 0.0372,0 h 0.25528 v 0.390674 c -0.0411,0.08454 -0.10737,0.153349 -0.19896,0.206189 -0.0916,0.05284 -0.18878,0.07906 -0.29093,0.07906 -0.10686,0 -0.19442,-0.02877 -0.26252,-0.0863 -0.0681,-0.05754 -0.1018,-0.137107 -0.1018,-0.239262 0,-0.22636 0.18706,-0.343292 0.56172,-0.350366 z"
       style="font-size:3.6071px;font-family:Roboto;-inkscape-font-specification:Roboto-Regular;fill:#ffffff;stroke-width:0.298417" />
    <path
       id="header"
       d="M 77.545138 2.6215454 L 71.348617 18.89032 L 65.152096 2.6468669 L 60.409233 21.389392 L 61.454647 21.389392 L 65.356217 6.0637126 L 71.348617 21.848279 L 77.341016 6.0895508 L 81.217265 21.389392 L 82.288 21.389392 L 77.545138 2.6215454 z M 104.11613 2.9274699 C 101.39613 2.9274699 99.152236 3.8115062 97.384237 5.5795044 C 95.633238 7.3305026 94.757524 9.5660745 94.757524 12.286072 C 94.757524 15.040069 95.633238 17.292284 97.384237 19.043282 C 99.118235 20.77728 101.36213 21.644157 104.11613 21.644157 C 107.00612 21.644157 109.32698 20.717997 111.07797 18.864998 C 112.69297 17.165 113.50005 15.073994 113.50005 12.591996 L 106.33459 12.591996 L 106.33459 13.63741 L 112.35283 13.63741 C 112.18283 15.269409 111.50265 16.731191 110.31265 18.023189 C 108.74865 19.740188 106.68312 20.598743 104.11613 20.598743 C 101.71913 20.598743 99.721726 19.816631 98.123726 18.252633 C 96.559728 16.688634 95.777616 14.700069 95.777616 12.286072 C 95.777616 9.8890742 96.568049 7.8999926 98.149048 6.3189941 C 99.730048 4.7379957 101.71913 3.9475627 104.11613 3.9475627 C 107.05712 3.9475627 109.34366 5.0692509 110.97566 7.3132487 L 111.81746 6.6760783 C 109.94747 4.1770808 107.38012 2.9274699 104.11613 2.9274699 z M 32.894633 3.1822347 L 32.894633 21.389392 L 33.914726 21.389392 L 33.914726 11.903149 L 40.799577 11.903149 L 40.799577 10.857735 L 33.914726 10.857735 L 33.914726 4.2276489 L 40.799577 4.2276489 L 40.799577 3.1822347 L 32.894633 3.1822347 z M 46.690173 3.1822347 L 46.690173 21.389392 L 55.43641 21.389392 L 55.43641 20.343978 L 47.735588 20.343978 L 47.735588 11.980147 L 55.43641 11.980147 L 55.43641 10.857735 L 47.735588 10.857735 L 47.735588 4.2276489 L 55.43641 4.2276489 L 55.43641 3.1822347 L 46.690173 3.1822347 z M 87.668551 3.1822347 L 87.668551 21.389392 L 88.688643 21.389392 L 88.688643 3.1822347 L 87.668551 3.1822347 z M 43.298649 19.859253 C 42.73765 19.961253 42.457357 20.242062 42.457357 20.701062 C 42.474357 20.956062 42.559122 21.159911 42.712122 21.312911 C 42.916121 21.465911 43.111649 21.542354 43.298649 21.542354 C 43.859649 21.542354 44.139941 21.262061 44.139941 20.701062 C 44.003942 20.140063 43.723649 19.859253 43.298649 19.859253 z M 58.241406 19.859253 C 57.680407 19.961253 57.400114 20.242062 57.400114 20.701062 C 57.417114 20.956062 57.502396 21.159911 57.655396 21.312911 C 57.859395 21.465911 58.054406 21.542354 58.241406 21.542354 C 58.802406 21.542354 59.083215 21.262061 59.083215 20.701062 C 58.947215 20.140063 58.666406 19.859253 58.241406 19.859253 z M 84.124064 19.859253 C 83.563065 19.961253 83.282772 20.242062 83.282772 20.701062 C 83.299772 20.956062 83.384537 21.159911 83.537537 21.312911 C 83.741536 21.465911 83.937064 21.542354 84.124064 21.542354 C 84.685064 21.542354 84.965873 21.262061 84.965873 20.701062 C 84.829873 20.140063 84.549064 19.859253 84.124064 19.859253 z M 91.901884 19.859253 C 91.340885 19.961253 91.060075 20.242062 91.060075 20.701062 C 91.077075 20.956062 91.162357 21.159911 91.315356 21.312911 C 91.519356 21.465911 91.714884 21.542354 91.901884 21.542354 C 92.462883 21.542354 92.743176 21.262061 92.743176 20.701062 C 92.607176 20.140063 92.326884 19.859253 91.901884 19.859253 z M 115.74436 19.859253 C 115.18336 19.961253 114.90255 20.242062 114.90255 20.701062 C 114.91955 20.956062 115.00483 21.159911 115.15783 21.312911 C 115.36183 21.465911 115.55736 21.542354 115.74436 21.542354 C 116.30536 21.542354 116.58565 21.262061 116.58565 20.701062 C 116.44965 20.140063 116.16936 19.859253 115.74436 19.859253 z "
       style="font-weight:500;font-size:25.5px;font-family:GeosansLight;-inkscape-font-specification:GeosansLight;fill:#ffffff;stroke-width:0.352776" />
    <path
       d="m 15.983783,2.9953619 h -0.79919 c -0.437054,0 -0.799188,0.35604 -0.799188,0.79919 v 1.36062 c -0.729259,-0.34815 -1.533444,-0.55944 -2.397566,-0.55944 l -2.4425205,-4.9e-4 -5.138284,-3.08142 c -0.532459,-0.31962 -1.210271,0.0631 -1.210271,0.68435 v 2.958 C 1.3116775,6.0562619 9.5001424e-6,7.9618219 9.5001424e-6,10.189562 c 0,2.96 2.3061589998576,5.35956 5.2147049998576,5.55436 l -3.520425,6.03388 c -0.31843,0.54944 -0.405841,1.20478 -0.237259,1.81715 0.162335,0.61838 0.568423,1.14284 1.117865,1.45503 l 2.766191,1.59837 c 0.555436,0.31843 1.204777,0.40584 1.823149,0.24351 0.611879,-0.16858 1.136346,-0.56843 1.454523,-1.11787 l 5.7666465,-9.99011 v 0.75424 c 0,0.43706 0.362134,0.79919 0.799188,0.79919 h 0.79919 c 0.437056,0 0.793195,-0.3497 0.799187,-0.7867 V 3.7820719 c -0.005,-0.43706 -0.359634,-0.7867 -0.799187,-0.7867 z M 5.5943295,11.343382 c -0.661828,0 -1.198782,-0.53695 -1.198782,-1.19878 0,-0.6618301 0.536954,-1.1987801 1.198782,-1.1987801 0.661828,0 1.198783,0.53695 1.198783,1.1987801 0,0.70428 -0.534458,1.19878 -1.198783,1.19878 z m 4.7951325,0 c -0.6618285,0 -1.1987835,-0.53695 -1.1987835,-1.19878 0,-0.6618301 0.536955,-1.1987801 1.1987835,-1.1987801 0.661828,0 1.198783,0.53695 1.198783,1.1987801 0,0.70428 -0.534457,1.19878 -1.198783,1.19878 z M 28.441136,7.3624319 c -0.212283,-0.14985 -0.474518,-0.19356 -0.718271,-0.11239 l -3.747195,1.25123 h -3.196755 v -3.10635 c 0,-0.4433 -0.355894,-0.79919 -0.79919,-0.79919 l -0.799188,-0.002 c -0.437057,0 -0.799189,0.35593 -0.799189,0.79918 v 9.5902801 c 0,0.43726 0.362132,0.79919 0.799189,0.79919 l 0.799188,10e-4 c 0.443296,0 0.79919,-0.36203 0.79919,-0.79918 v -3.28667 h 3.203247 l 3.733711,1.24873 c 0.243501,0.0812 0.511981,0.0374 0.724264,-0.11243 0.205791,-0.1523 0.330664,-0.39205 0.330664,-0.65179 V 8.0112719 c 0,-0.25973 -0.124873,-0.49949 -0.329665,-0.64934 z"
       id="logo"
       style="fill:#ffffff;stroke-width:0.0499491" />
  </g>
</svg>
