<?xml version="1.0" encoding="UTF-8" standalone="no"?>
<!-- Created with Inkscape (http://www.inkscape.org/) -->

<svg
   width="116.58575mm"
   height="25.853401mm"
   viewBox="0 0 116.58575 25.853401"
   version="1.1"
   id="svg537"
   xmlns="http://www.w3.org/2000/svg"
   xmlns:svg="http://www.w3.org/2000/svg">
  <defs
     id="defs534" />
  <g
     id="layer1"
     transform="translate(-63.559982,-105.94409)">
    <text
       xml:space="preserve"
       style="font-variant:normal;font-weight:normal;font-stretch:normal;font-size:3.6071px;font-family:Roboto;-inkscape-font-specification:Roboto-Regular;writing-mode:lr-tb;fill:#ffffff;fill-opacity:1;fill-rule:nonzero;stroke:none;stroke-width:0.298417"
       id="subheader"
       x="95.858597"
       y="130.1328"><tspan
         x="95.858597"
         y="130.1328"
         id="tspan11016"
         style="stroke-width:0.298417">Fallout Enhancement Mods for Immersive Gameplay</tspan></text>
    <text
       xml:space="preserve"
       style="font-variant:normal;font-weight:500;font-stretch:normal;font-size:25.5px;font-family:GeosansLight;-inkscape-font-specification:GeosansLight;writing-mode:lr-tb;fill:#ffffff;fill-opacity:1;fill-rule:nonzero;stroke:none;stroke-width:0.352776"
       id="header"
       x="94.516602"
       y="125.93494"><tspan
         id="tspan515"
         x="94.516602"
         y="125.93494"
         style="stroke-width:0.352776">F.E.M.I.G.</tspan></text>
    <path
       d="m 79.543755,107.54091 h -0.79919 c -0.437054,0 -0.799188,0.35604 -0.799188,0.79919 v 1.36062 c -0.729259,-0.34815 -1.533444,-0.55944 -2.397566,-0.55944 l -2.44252,-4.9e-4 -5.138284,-3.08142 c -0.532459,-0.31962 -1.210271,0.0631 -1.210271,0.68435 v 2.958 c -1.885086,0.90009 -3.196754,2.80565 -3.196754,5.03339 0,2.96 2.306159,5.35956 5.214705,5.55436 l -3.520425,6.03388 c -0.31843,0.54944 -0.405841,1.20478 -0.237259,1.81715 0.162335,0.61838 0.568423,1.14284 1.117865,1.45503 l 2.766191,1.59837 c 0.555436,0.31843 1.204777,0.40584 1.823149,0.24351 0.611879,-0.16858 1.136346,-0.56843 1.454523,-1.11787 l 5.766646,-9.99011 v 0.75424 c 0,0.43706 0.362134,0.79919 0.799188,0.79919 h 0.79919 c 0.437056,0 0.793195,-0.3497 0.799187,-0.7867 v -12.76854 c -0.005,-0.43706 -0.359634,-0.7867 -0.799187,-0.7867 z m -10.389453,8.34802 c -0.661828,0 -1.198782,-0.53695 -1.198782,-1.19878 0,-0.66183 0.536954,-1.19878 1.198782,-1.19878 0.661828,0 1.198783,0.53695 1.198783,1.19878 0,0.70428 -0.534458,1.19878 -1.198783,1.19878 z m 4.795132,0 c -0.661828,0 -1.198783,-0.53695 -1.198783,-1.19878 0,-0.66183 0.536955,-1.19878 1.198783,-1.19878 0.661828,0 1.198783,0.53695 1.198783,1.19878 0,0.70428 -0.534457,1.19878 -1.198783,1.19878 z m 18.051674,-3.98095 c -0.212283,-0.14985 -0.474518,-0.19356 -0.718271,-0.11239 l -3.747195,1.25123 h -3.196755 v -3.10635 c 0,-0.4433 -0.355894,-0.79919 -0.79919,-0.79919 l -0.799188,-0.002 c -0.437057,0 -0.799189,0.35593 -0.799189,0.79918 v 9.59028 c 0,0.43726 0.362132,0.79919 0.799189,0.79919 l 0.799188,0.001 c 0.443296,0 0.79919,-0.36203 0.79919,-0.79918 v -3.28667 h 3.203247 l 3.733711,1.24873 c 0.243501,0.0812 0.511981,0.0374 0.724264,-0.11243 0.205791,-0.1523 0.330664,-0.39205 0.330664,-0.65179 v -4.17077 c 0,-0.25973 -0.124873,-0.49949 -0.329665,-0.64934 z"
       id="logo"
       style="fill:#ffffff;stroke-width:0.0499491" />
  </g>
</svg>
