<svg
   width="512"
   height="455.09467"
   viewBox="0 0 135.46667 120.41047"
   version="1.1"
   id="svg234"
   xml:space="preserve"
   xmlns="http://www.w3.org/2000/svg"><defs
     id="defs231" /><g
     id="layer1"
     transform="translate(0,-7.5280986)"><path
       d="M 75.25926,15.046687 H 71.4963 c -2.05786,0 -3.76297,1.676398 -3.76297,3.76296 v 6.406447 C 64.29963,23.576851 60.51315,22.582015 56.44445,22.582015 L 44.94389,22.579689 20.750386,8.0708735 C 18.243314,6.5659485 15.05185,8.3681665 15.05185,11.293163 V 25.220835 C 6.175962,29.458881 0,38.431166 0,48.92044 0,62.85754 10.858502,74.15582 24.553331,75.07303 l -16.575849,28.4104 c -1.499321,2.58702 -1.910894,5.67268 -1.117129,8.55602 0.764351,2.91162 2.676408,5.38103 5.263445,6.85097 l 13.024553,7.5259 c 2.615259,1.49932 5.672667,1.91089 8.584259,1.14656 2.88102,-0.79376 5.350462,-2.67644 6.848592,-5.26347 L 67.73333,75.26118 v 3.55132 c 0,2.05789 1.70511,3.76297 3.76297,3.76297 h 3.76296 c 2.05787,0 3.73475,-1.64655 3.76296,-3.70416 V 18.750895 C 78.99872,16.693021 77.32889,15.04672 75.25926,15.04672 Z M 26.34074,54.35318 c -3.116203,0 -5.64444,-2.52822 -5.64444,-5.64443 0,-3.11622 2.528237,-5.64444 5.64444,-5.64444 3.116204,0 5.644445,2.52822 5.644445,5.64444 0,3.31608 -2.516484,5.64443 -5.644445,5.64443 z m 22.57778,0 c -3.116203,0 -5.644445,-2.52822 -5.644445,-5.64443 0,-3.11622 2.528242,-5.64444 5.644445,-5.64444 3.1162,0 5.64444,2.52822 5.64444,5.64444 0,3.31608 -2.51647,5.64443 -5.64444,5.64443 z m 84.99593,-18.744229 c -0.99953,-0.705585 -2.23426,-0.911364 -3.38196,-0.529196 l -17.6436,5.8914 H 97.83704 v -14.62617 c 0,-2.087279 -1.67571,-3.76297 -3.76296,-3.76297 l -3.76297,-0.0094 c -2.05787,0 -3.76296,1.675922 -3.76296,3.762956 V 71.49121 c 0,2.05883 1.70509,3.76297 3.76296,3.76297 l 3.76297,0.005 c 2.08725,0 3.76296,-1.70461 3.76296,-3.76292 V 56.02073 h 15.08243 l 17.5801,5.87962 c 1.14651,0.38233 2.41065,0.1761 3.41018,-0.52937 0.96896,-0.71711 1.55692,-1.84596 1.55692,-3.06894 V 38.664 c 0,-1.222933 -0.58796,-2.351791 -1.55222,-3.057356 z"
       id="path88"
       style="fill:#000000;stroke-width:0.235184" /></g><style>@media (prefers-color-scheme: light) { :root { filter: none; } }
@media (prefers-color-scheme: dark) { :root { filter: invert(100%); } }</style></svg>
