<?xml version="1.0" encoding="UTF-8" standalone="no"?>
<!-- Created with Inkscape (http://www.inkscape.org/) -->

<svg
   width="440.63904"
   height="110.732"
   viewBox="0 0 116.58575 29.297842"
   version="1.1"
   id="svg537"
   sodipodi:docname="femig-header-source.svg"
   inkscape:version="1.2.1 (9c6d41e410, 2022-07-14)"
   xmlns:inkscape="http://www.inkscape.org/namespaces/inkscape"
   xmlns:sodipodi="http://sodipodi.sourceforge.net/DTD/sodipodi-0.dtd"
   xmlns="http://www.w3.org/2000/svg"
   xmlns:svg="http://www.w3.org/2000/svg">
  <sodipodi:namedview
     id="namedview690"
     pagecolor="#505050"
     bordercolor="#ffffff"
     borderopacity="1"
     inkscape:showpageshadow="0"
     inkscape:pageopacity="0"
     inkscape:pagecheckerboard="1"
     inkscape:deskcolor="#505050"
     inkscape:document-units="mm"
     showgrid="false"
     showguides="true"
     inkscape:zoom="3.4156377"
     inkscape:cx="224.11628"
     inkscape:cy="41.42711"
     inkscape:window-width="2560"
     inkscape:window-height="1355"
     inkscape:window-x="1920"
     inkscape:window-y="0"
     inkscape:window-maximized="1"
     inkscape:current-layer="layer2">
    <sodipodi:guide
       position="55.385583,6.3090723"
       orientation="0,1"
       id="guide809"
       inkscape:locked="false"
       inkscape:label=""
       inkscape:color="rgb(0,134,229)" />
  </sodipodi:namedview>
  <defs
     id="defs534" />
  <g
     inkscape:groupmode="layer"
     id="layer2"
     inkscape:label="Layer 1">
    <text
       xml:space="preserve"
       style="font-variant:normal;font-weight:normal;font-stretch:normal;font-size:3.6071px;font-family:Roboto;-inkscape-font-specification:Roboto-Regular;writing-mode:lr-tb;fill:#ffffff;fill-opacity:1;fill-rule:nonzero;stroke:none;stroke-width:0.298417"
       id="subheader"
       x="32.298622"
       y="27.129623"><tspan
         x="32.298622"
         y="27.129623"
         id="tspan11016"
         style="stroke-width:0.298417">Fallout Enhancement Mods for Immersive Gameplay</tspan></text>
    <text
       xml:space="preserve"
       style="font-variant:normal;font-weight:500;font-stretch:normal;font-size:25.5px;font-family:GeosansLight;-inkscape-font-specification:GeosansLight;writing-mode:lr-tb;fill:#ffffff;fill-opacity:1;fill-rule:nonzero;stroke:none;stroke-width:0.352776"
       id="header"
       x="30.956629"
       y="21.389389"><tspan
         id="tspan515"
         x="30.956629"
         y="21.389389"
         style="stroke-width:0.352776">F.E.M.I.G.</tspan></text>
    <path
       d="m 15.983783,2.9953619 h -0.79919 c -0.437054,0 -0.799188,0.35604 -0.799188,0.79919 v 1.36062 c -0.729259,-0.34815 -1.533444,-0.55944 -2.397566,-0.55944 l -2.4425205,-4.9e-4 -5.138284,-3.08142 c -0.532459,-0.31962 -1.210271,0.0631 -1.210271,0.68435 v 2.958 C 1.3116775,6.0562619 9.5001424e-6,7.9618219 9.5001424e-6,10.189562 c 0,2.96 2.3061589998576,5.35956 5.2147049998576,5.55436 l -3.520425,6.03388 c -0.31843,0.54944 -0.405841,1.20478 -0.237259,1.81715 0.162335,0.61838 0.568423,1.14284 1.117865,1.45503 l 2.766191,1.59837 c 0.555436,0.31843 1.204777,0.40584 1.823149,0.24351 0.611879,-0.16858 1.136346,-0.56843 1.454523,-1.11787 l 5.7666465,-9.99011 v 0.75424 c 0,0.43706 0.362134,0.79919 0.799188,0.79919 h 0.79919 c 0.437056,0 0.793195,-0.3497 0.799187,-0.7867 V 3.7820719 c -0.005,-0.43706 -0.359634,-0.7867 -0.799187,-0.7867 z M 5.5943295,11.343382 c -0.661828,0 -1.198782,-0.53695 -1.198782,-1.19878 0,-0.6618301 0.536954,-1.1987801 1.198782,-1.1987801 0.661828,0 1.198783,0.53695 1.198783,1.1987801 0,0.70428 -0.534458,1.19878 -1.198783,1.19878 z m 4.7951325,0 c -0.6618285,0 -1.1987835,-0.53695 -1.1987835,-1.19878 0,-0.6618301 0.536955,-1.1987801 1.1987835,-1.1987801 0.661828,0 1.198783,0.53695 1.198783,1.1987801 0,0.70428 -0.534457,1.19878 -1.198783,1.19878 z M 28.441136,7.3624319 c -0.212283,-0.14985 -0.474518,-0.19356 -0.718271,-0.11239 l -3.747195,1.25123 h -3.196755 v -3.10635 c 0,-0.4433 -0.355894,-0.79919 -0.79919,-0.79919 l -0.799188,-0.002 c -0.437057,0 -0.799189,0.35593 -0.799189,0.79918 v 9.5902801 c 0,0.43726 0.362132,0.79919 0.799189,0.79919 l 0.799188,10e-4 c 0.443296,0 0.79919,-0.36203 0.79919,-0.79918 v -3.28667 h 3.203247 l 3.733711,1.24873 c 0.243501,0.0812 0.511981,0.0374 0.724264,-0.11243 0.205791,-0.1523 0.330664,-0.39205 0.330664,-0.65179 V 8.0112719 c 0,-0.25973 -0.124873,-0.49949 -0.329665,-0.64934 z"
       id="logo"
       style="fill:#ffffff;stroke-width:0.0499491" />
  </g>
</svg>
