<?xml version="1.0" encoding="UTF-8" standalone="no"?>
<!-- Created with Inkscape (http://www.inkscape.org/) -->

<svg
   width="512"
   height="512"
   viewBox="0 0 135.46666 135.46667"
   version="1.1"
   id="svg5"
   xml:space="preserve"
   sodipodi:docname="automatron.svg"
   inkscape:version="1.2.1 (9c6d41e410, 2022-07-14)"
   xmlns:inkscape="http://www.inkscape.org/namespaces/inkscape"
   xmlns:sodipodi="http://sodipodi.sourceforge.net/DTD/sodipodi-0.dtd"
   xmlns:xlink="http://www.w3.org/1999/xlink"
   xmlns="http://www.w3.org/2000/svg"
   xmlns:svg="http://www.w3.org/2000/svg"><sodipodi:namedview
     id="namedview7"
     pagecolor="#ffffff"
     bordercolor="#ffffff"
     borderopacity="1"
     inkscape:showpageshadow="false"
     inkscape:pageopacity="0"
     inkscape:pagecheckerboard="true"
     inkscape:deskcolor="#505050"
     inkscape:document-units="px"
     showgrid="false"
     showguides="true"
     inkscape:zoom="1.1893044"
     inkscape:cx="108.04635"
     inkscape:cy="324.13905"
     inkscape:window-width="2560"
     inkscape:window-height="1355"
     inkscape:window-x="1920"
     inkscape:window-y="0"
     inkscape:window-maximized="1"
     inkscape:current-layer="layer1"
     shape-rendering="auto"
     borderlayer="true"
     showborder="true"><sodipodi:guide
       position="67.733332,78.206075"
       orientation="-1,0"
       id="guide1454"
       inkscape:locked="false"
       inkscape:label=""
       inkscape:color="rgb(0,134,229)" /><sodipodi:guide
       position="60.060414,74.621406"
       orientation="0,-1"
       id="guide1484"
       inkscape:locked="false" /><sodipodi:guide
       position="67.73333,106.5457"
       orientation="0,-1"
       id="guide1486"
       inkscape:locked="false" /><sodipodi:guide
       position="67.73333,21.117613"
       orientation="0,-1"
       id="guide1488"
       inkscape:locked="false" /></sodipodi:namedview><defs
     id="defs2" /><g
     inkscape:label="Layer 1"
     inkscape:groupmode="layer"
     id="layer1"
     style="stroke-width:2.22249997;stroke-dasharray:none"><g
       id="g1550"
       inkscape:label="Eyes"
       style="stroke:#000000;stroke-width:2.2225;stroke-dasharray:none;stroke-opacity:1"
       transform="matrix(1.0242143,0,0,1.0242143,-1.6401141,-5.6361604)"><ellipse
         style="fill:none;stroke:#000000;stroke-width:2.2225;stroke-dasharray:none;stroke-opacity:1"
         id="path241"
         cx="51.485725"
         cy="60.845261"
         rx="8.5746899"
         ry="7.1763525" /><use
         x="0"
         y="0"
         xlink:href="#path241"
         id="use1480"
         transform="matrix(-1,0,0,1,135.46666,-1.6201173e-6)"
         style="stroke:#000000;stroke-width:2.2225;stroke-dasharray:none;stroke-opacity:1" /></g><g
       id="g1545"
       inkscape:label="Mouth"
       style="stroke:#000000;stroke-width:2.2225;stroke-dasharray:none;stroke-opacity:1"
       transform="matrix(1.0242143,0,0,1.0242143,-1.6401141,-5.6361604)"><path
         style="fill:none;stroke:#000000;stroke-width:2.2225;stroke-linecap:butt;stroke-linejoin:miter;stroke-dasharray:none;stroke-opacity:1"
         d="M 65.352083,75.935416 V 109.5375 h 4.762499 V 75.935416 Z"
         id="path1526" /><path
         style="fill:none;stroke:#000000;stroke-width:2.2225;stroke-linecap:butt;stroke-linejoin:miter;stroke-dasharray:none;stroke-opacity:1"
         d="m 56.091666,78.316666 -3.439583,1.322916 v 26.458338 l 3.439583,1.32291 z"
         id="path1532" /><path
         style="fill:none;stroke:#000000;stroke-width:2.2225;stroke-linecap:butt;stroke-linejoin:miter;stroke-dasharray:none;stroke-opacity:1"
         d="m 46.831249,82.020832 -2.38125,1.322917 v 17.727081 l 2.38125,1.32292 z"
         id="path1534" /><path
         style="fill:none;stroke:#000000;stroke-width:2.2225;stroke-linecap:butt;stroke-linejoin:miter;stroke-dasharray:none;stroke-opacity:1"
         d="m 79.374999,78.316666 v 29.104164 l 3.439583,-1.32291 V 79.639582 Z"
         id="path1536" /><path
         style="fill:none;stroke:#000000;stroke-width:2.2225;stroke-linecap:butt;stroke-linejoin:miter;stroke-dasharray:none;stroke-opacity:1"
         d="m 88.635416,82.020832 v 20.372918 l 2.38125,-1.32292 V 83.343749 Z"
         id="path1538" /></g><path
       id="path388"
       style="color:#000000;fill:none;stroke:#000000;stroke-width:2.27632;stroke-dasharray:none;stroke-opacity:1"
       d="m 67.733332,23.984849 c -10.472674,0 -18.824212,2.449603 -22.207421,5.981364 -3.383207,3.53176 -7.632975,15.095308 -7.860827,17.316897 -1.025689,1.011244 -1.702035,2.246964 -2.1097,3.568389 L 18.812752,47.728762 C 18.525979,44.321673 15.993277,41.36763 12.47889,40.712131 8.9644733,40.056614 5.5362663,41.898774 4.0400909,44.973344 l -1.9593849,-0.36573 -0.7531617,4.038915 1.9599142,0.365202 c 0.287666,3.407082 2.8209713,6.362265 6.3349208,7.017689 3.5139677,0.655434 6.9405757,-1.187863 8.4366817,-4.262271 l 17.005683,3.171959 c 0.106129,2.63288 0.934495,5.070254 1.916513,6.300519 -0.455708,3.588721 -2.50646,30.247659 -2.449495,32.526213 0.05696,2.278556 1.350097,17.71598 33.20157,17.71598 31.851479,0 33.144628,-15.437424 33.201568,-17.71598 0.057,-2.278554 -1.993789,-28.937492 -2.449489,-32.526213 0.98201,-1.230265 1.810379,-3.667639 1.916509,-6.300519 l 17.00568,-3.171959 c 1.49611,3.074408 4.92271,4.917705 8.43669,4.262271 3.51394,-0.655424 6.04726,-3.610607 6.33492,-7.017689 l 1.95991,-0.365202 -0.75316,-4.038915 -1.95939,0.36573 c -1.49618,-3.07457 -4.9249,-4.91673 -8.43933,-4.261213 -3.51437,0.655499 -6.04655,3.609542 -6.33333,7.016631 l -16.742629,3.122737 c -0.40766,-1.321425 -1.08401,-2.557145 -2.1097,-3.568389 C 97.573729,45.061521 93.323961,33.497973 89.940754,29.966213 86.557545,26.434452 78.206008,23.984849 67.733332,23.984849 Z m -56.776116,19.60814 c 0.318432,-0.0048 0.642792,0.0217 0.969108,0.08257 2.610528,0.486927 4.305652,2.959051 3.818737,5.569586 -0.486918,2.610535 -2.959588,4.307242 -5.570116,3.820325 -2.6105249,-0.486928 -4.306712,-2.961179 -3.8197947,-5.571703 0.4260517,-2.28421 2.373049,-3.866895 4.6020657,-3.900775 z m 113.552234,0 c 2.22902,0.03388 4.17601,1.616565 4.60206,3.900775 0.48691,2.610524 -1.20927,5.084775 -3.81979,5.571703 -2.61053,0.486917 -5.08319,-1.20979 -5.57011,-3.820325 -0.48692,-2.610535 1.20819,-5.082659 3.81873,-5.569586 0.32631,-0.06086 0.65067,-0.08741 0.96911,-0.08257 z" /></g></svg>
