<?xml version="1.0" encoding="UTF-8" standalone="no"?>
<!-- Created with Inkscape (http://www.inkscape.org/) -->

<svg
   width="512"
   height="512"
   viewBox="0 0 135.46666 135.46667"
   version="1.1"
   id="svg5"
   xml:space="preserve"
   xmlns="http://www.w3.org/2000/svg"
   xmlns:svg="http://www.w3.org/2000/svg"><defs
     id="defs2" /><g
     id="layer1"
     style="stroke-width:2.22249997;stroke-dasharray:none"><path
       id="helmet"
       style="color:#000000;fill:#000000;stroke:#000000;stroke-width:0;stroke-dasharray:none;stroke-opacity:1"
       d="m 67.733332,23.110492 c -10.682019,0 -19.200557,2.498242 -22.651394,6.100601 -3.450837,3.60236 -7.785767,15.396968 -8.018174,17.662964 -1.046193,1.031459 -1.735789,2.292281 -2.151604,3.640121 L 17.834799,47.328941 C 17.542293,43.853744 14.958829,40.840642 11.374192,40.17204 7.7895221,39.503421 4.292808,41.382439 2.7667246,44.518469 L 0.76797915,44.145286 1.2499998e-6,48.265062 1.9992738,48.637191 c 0.2934164,3.47519 2.8769423,6.489957 6.4611345,7.158482 3.5842107,0.668537 7.0793447,-1.211618 8.6053587,-4.347482 l 17.345653,3.235311 c 0.108251,2.68551 0.953348,5.171488 1.954997,6.426346 -0.464819,3.66046 -2.556536,30.852332 -2.498432,33.176434 0.0581,2.324103 1.377173,18.069888 33.865347,18.069888 32.488178,0 33.807258,-15.745785 33.865338,-18.069888 0.0581,-2.324102 -2.033616,-29.515974 -2.498426,-33.176434 1.001636,-1.254858 1.846746,-3.740836 1.954996,-6.426346 l 17.34565,-3.235311 c 1.52602,3.135864 5.02115,5.016019 8.60536,4.347482 3.58419,-0.668525 6.16772,-3.683292 6.46114,-7.158482 l 1.99927,-0.372129 -0.76798,-4.119776 -1.99875,0.373183 c -1.52609,-3.13603 -5.0233,-5.015048 -8.60799,-4.346429 -3.58461,0.668602 -6.16757,3.681704 -6.46008,7.156901 L 100.5545,50.514178 C 100.13869,49.166338 99.449094,47.905516 98.402901,46.874057 98.170494,44.608061 93.835563,32.813453 90.384726,29.211093 86.933889,25.608734 78.415354,23.110492 67.733332,23.110492 Z M 9.8224227,43.110597 c 0.3247963,-0.0049 0.6554643,0.02172 0.9883043,0.08381 2.662711,0.49666 4.391881,3.018314 3.895234,5.681034 -0.496652,2.662718 -3.018848,4.393467 -5.6815613,3.896815 -2.6627075,-0.49666 -4.3929386,-3.020433 -3.896288,-5.683142 0.4345682,-2.329869 2.4207365,-3.943958 4.694311,-3.978515 z m 115.8218073,0 c 2.27358,0.03456 4.25975,1.648646 4.69432,3.978515 0.49665,2.662709 -1.2336,5.186482 -3.89629,5.683142 -2.66271,0.496652 -5.18491,-1.234097 -5.68156,-3.896815 -0.49666,-2.66272 1.2325,-5.184374 3.89523,-5.681034 0.33284,-0.06208 0.6635,-0.08875 0.9883,-0.08381 z m -74.884422,5.853921 a 8.9578937,7.4970645 0 0 1 8.957459,7.496877 8.9578937,7.4970645 0 0 1 -8.957459,7.497403 8.9578937,7.4970645 0 0 1 -8.957985,-7.497403 8.9578937,7.4970645 0 0 1 8.957985,-7.496877 z m 33.947048,0 a 8.9578937,7.4970645 0 0 1 8.957985,7.496877 8.9578937,7.4970645 0 0 1 -8.957985,7.497403 8.9578937,7.4970645 0 0 1 -8.957458,-7.497403 8.9578937,7.4970645 0 0 1 8.957458,-7.496877 z M 65.245442,72.226289 h 4.97578 v 35.103491 h -4.97578 z m -9.673781,2.487362 v 30.404969 l -3.593736,-1.38205 V 76.095695 Z m 24.323868,0 3.59321,1.382044 v 27.640875 l -3.59321,1.38205 z M 45.897354,78.583585 V 99.866643 L 43.409465,98.484596 V 79.965629 Z m 43.671956,0 2.48789,1.382044 v 18.518967 l -2.48789,1.382047 z" /></g></svg>
