<?xml version="1.0" encoding="UTF-8" standalone="no"?>
<!-- Created with Inkscape (http://www.inkscape.org/) -->

<svg
   width="512"
   height="512"
   viewBox="0 0 135.46666 135.46667"
   version="1.1"
   id="svg5"
   xml:space="preserve"
   xmlns="http://www.w3.org/2000/svg"
   xmlns:svg="http://www.w3.org/2000/svg"><defs
     id="defs2" /><g
     id="layer1"><path
       style="fill:#000000;stroke-width:0.590831"
       d="m 82.968151,135.00946 c -0.25522,-0.39378 -2.06256,-4.56552 -4.0163,-9.27055 l -3.55226,-8.55458 -7.592197,-0.0124 -7.59219,-0.0124 -3.62632,8.99948 c -2.614695,6.4889 -3.899001,9.00245 -4.603774,9.01017 -0.865349,0.009 -20.420629,-7.89674 -21.023844,-8.49995 -0.131304,-0.1313 1.375367,-4.12097 3.348175,-8.8659 1.972809,-4.74493 3.586924,-8.89861 3.586924,-9.23039 0,-0.33177 -2.392611,-2.99584 -5.316919,-5.92014 l -5.316918,-5.316919 -7.669744,3.275179 c -4.218362,1.80135 -8.320573,3.52262 -9.116032,3.82506 -1.3981485,0.53158 -1.5361835,0.3369 -4.1474385,-5.849489 -1.485633,-3.51966 -2.70115,-6.69631 -2.70115,-7.05923 0,-0.47199 5.313723,-0.65985 18.6641985,-0.65985 h 18.664207 l 3.283963,2.92695 c 3.767068,3.35753 10.039567,6.621149 15.306448,7.964059 10.266097,2.61755 22.450201,-0.42876 31.350591,-7.838379 l 3.66681,-3.05263 h 18.995689 c 14.9562,0 18.93448,0.15706 18.70781,0.73854 -2.62153,6.7252 -5.56051,12.850569 -6.1658,12.850569 -0.42362,0 -4.67295,-1.58029 -9.44294,-3.51176 l -8.67271,-3.511749 -5.28602,5.311229 -5.286019,5.31124 3.622939,8.71457 c 1.99262,4.79301 3.62294,8.99218 3.62294,9.33148 0,0.7198 -0.71647,1.0713 -10.930369,5.36234 -10.8656,4.56485 -10.23565,4.3573 -10.76175,3.54559 z m -5.78152,-48.915179 c -1.94974,-0.28388 -4.129749,-0.77654 -4.84446,-1.09479 -1.22877,-0.54716 -1.258924,-0.7167 -0.554259,-3.11596 0.831495,-2.831112 0.762709,-2.814279 6.624949,-1.620819 5.99337,1.220159 10.88581,-0.612408 10.88581,-4.077497 0,-2.584585 -1.47729,-3.991235 -6.30032,-5.999068 -6.12079,-2.548095 -8.92402,-4.50247 -10.285291,-7.170793 -4.347796,-8.522384 5.377451,-16.123426 18.040951,-14.100427 5.59844,0.89436 5.6423,0.933749 4.67843,4.202227 l -0.80261,2.721669 -3.08976,-0.801467 c -3.92983,-1.01939 -5.91323,-1.011202 -8.41655,0.03473 -2.5347,1.059064 -3.4748,2.705445 -2.70339,4.734401 0.43921,1.155199 2.16898,2.275568 7.32729,4.74588 7.15077,3.424499 8.83008,4.903106 9.84365,8.66722 2.31378,8.592714 -7.45958,14.759454 -20.40444,12.874674 z M 3.0373335,67.529581 V 48.918402 h 11.8166205 11.81662 v 2.954156 2.954155 h -7.385388 -7.385388 v 5.022064 5.022064 h 7.122345 7.122344 l -0.180079,2.806449 -0.180079,2.806446 -6.942266,0.166459 -6.942265,0.166458 v 7.662057 7.662051 H 7.4685665 3.0373335 Z M 52.076311,81.725321 V 77.309887 L 43.361553,77.146376 34.646794,76.982882 34.46854,74.853125 c -0.154567,-1.846696 0.476831,-3.063838 4.75066,-9.157882 2.710905,-3.865466 6.347156,-9.088648 8.080561,-11.607067 l 3.151646,-4.578941 h 4.639815 4.63982 l 0.160747,11.078084 0.160747,11.078084 2.511031,0.18168 2.511033,0.18168 v 2.624769 2.624766 h -2.65874 -2.65874 v 4.431233 4.43123 h -3.840402 -3.840402 z m 0.008,-16.411357 c 0.0047,-3.655767 0.148572,-7.311535 0.320279,-8.123927 0.291285,-1.378089 0.261047,-1.400294 -0.451189,-0.331326 -7.684259,11.533012 -9.330422,14.10172 -9.330422,14.559448 0,0.298459 2.126992,0.542656 4.726649,0.542656 h 4.726649 z m 55.530119,2.215617 V 48.918402 h 12.11204 12.11204 v 2.954156 2.954155 h -7.68082 -7.68079 v 4.726648 4.726649 h 7.08997 7.08997 v 2.658739 2.658742 h -7.08997 -7.08997 v 5.31748 5.317479 h 7.97621 7.97622 v 2.954151 2.95416 H 120.02188 107.61443 Z M 3.2031315,44.044045 c 0.16073,-0.406197 1.290647,-3.264343 2.510938,-6.351436 1.220297,-3.087092 2.543634,-5.966294 2.940748,-6.398226 0.594714,-0.646855 1.6997745,-0.375171 6.2670295,1.540773 3.049751,1.279357 7.05799,2.938041 8.907203,3.685962 l 3.3622,1.359858 5.352558,-5.311957 c 2.943905,-2.921575 5.352557,-5.479596 5.352557,-5.684489 0,-0.204893 -1.620543,-4.265744 -3.60121,-9.024113 -1.980666,-4.758369 -3.376504,-8.8667012 -3.101862,-9.1296262 1.212125,-1.160413 20.968512,-8.99949295 21.433182,-8.50441195 0.278382,0.296607 2.037274,4.26152195 3.908638,8.81092195 1.871367,4.5493992 3.482262,8.3698642 3.579762,8.4899202 0.45237,0.557009 15.097256,0.379579 15.555246,-0.18846 0.27523,-0.34136 2.0184,-4.342892 3.87372,-8.8922912 1.85532,-4.5494 3.44609,-8.34873695 3.53506,-8.44296895 0.19135,-0.202674 21.510699,8.47076695 21.983629,8.94369095 0.0996,0.09963 -1.52865,4.2662402 -3.61839,9.2591252 l -3.799529,9.077975 5.295309,5.270172 c 4.21747,4.197446 5.56285,5.20978 6.6097,4.973476 0.72291,-0.163175 4.82012,-1.7695 9.10491,-3.569595 5.79838,-2.435975 7.9379,-3.094634 8.3668,-2.575765 0.53052,0.641792 5.408,12.47153 5.408,13.116464 0,0.15594 -8.39968,0.28354 -18.66596,0.28354 H 95.097421 l -3.63792,-3.299308 C 87.414821,37.815064 80.166441,34.03314 75.237351,33.01919 70.80585,32.107596 63.568956,32.220871 59.438125,33.266485 54.237777,34.582818 47.869044,37.995657 43.88503,41.600987 l -3.515782,3.181597 H 21.640079 c -14.7452985,0 -18.6670105,-0.157096 -18.4369475,-0.738539 z"
       id="f4se" /></g></svg>
