<?xml version="1.0" encoding="UTF-8" standalone="no"?>
<!-- Created with Inkscape (http://www.inkscape.org/) -->

<svg
   width="512"
   height="512"
   viewBox="0 0 135.46666 135.46667"
   version="1.1"
   id="svg11547"
   xml:space="preserve"
   xmlns="http://www.w3.org/2000/svg"
   xmlns:svg="http://www.w3.org/2000/svg"><defs
     id="defs11544" /><g
     id="layer1"
     style="stroke-width:1.00012499;stroke-dasharray:none"><path
       id="far-harbor"
       style="fill:#000000;stroke:#000000;stroke-width:1.00012499;stroke-linecap:butt;stroke-linejoin:miter;stroke-dasharray:none;stroke-opacity:1"
       d="m 58.479878,23.281573 v 47.742048 h -29.38488 c -1e-6,1.20818 4.777002,0.935672 4.777002,2.480642 V 83.880925 C 22.044112,82.463775 15.088809,81.666451 6.1293041e-7,78.402183 8.2091635,104.28678 18.09781,111.93071 22.821584,112.0371 c 33.160153,0.74684 82.710456,-1.4585 93.771726,-3.79911 1.21092,-0.25623 2.25096,-0.84799 2.27154,-1.9975 0.0205,-1.14951 -0.0918,-1.74508 -1.21444,-2.66968 -5.73759,-4.725667 13.78969,-5.612972 16.22713,-5.364154 1.93531,-7.707588 1.60301,-11.177599 1.50486,-15.2994 -34.14739,3.904699 -74.959934,2.220854 -74.959934,2.220854 V 23.281573 Z M 38.099334,74.191746 h 5.208924 v 7.711742 h -5.208924 z m 9.667531,0 h 5.208925 v 7.711742 h -5.208925 z" /></g></svg>
