<?xml version="1.0" encoding="UTF-8" standalone="no"?>
<!-- Created with Inkscape (http://www.inkscape.org/) -->

<svg
   width="512"
   height="512"
   viewBox="0 0 135.46666 135.46667"
   version="1.1"
   id="svg13111"
   xml:space="preserve"
   inkscape:version="1.2.1 (9c6d41e410, 2022-07-14)"
   sodipodi:docname="nukaworld.svg"
   xmlns:inkscape="http://www.inkscape.org/namespaces/inkscape"
   xmlns:sodipodi="http://sodipodi.sourceforge.net/DTD/sodipodi-0.dtd"
   xmlns="http://www.w3.org/2000/svg"
   xmlns:svg="http://www.w3.org/2000/svg"><sodipodi:namedview
     id="namedview13113"
     pagecolor="#505050"
     bordercolor="#ffffff"
     borderopacity="1"
     inkscape:showpageshadow="0"
     inkscape:pageopacity="0"
     inkscape:pagecheckerboard="1"
     inkscape:deskcolor="#505050"
     inkscape:document-units="px"
     showgrid="false"
     showguides="true"
     inkscape:zoom="1.1893044"
     inkscape:cx="365.33961"
     inkscape:cy="266.96277"
     inkscape:window-width="2560"
     inkscape:window-height="1355"
     inkscape:window-x="1920"
     inkscape:window-y="0"
     inkscape:window-maximized="1"
     inkscape:current-layer="layer1" /><defs
     id="defs13108" /><g
     inkscape:label="Layer 1"
     inkscape:groupmode="layer"
     id="layer1"><path
       id="path13133"
       style="fill:none;stroke:#000000;stroke-width:2.34551;stroke-linecap:butt;stroke-linejoin:miter;stroke-dasharray:none;stroke-opacity:1"
       d="m 58.26305,1.1727552 c 0,0 -2.288981,1.8582294 -3.844831,3.9179104 2.596854,1.0765318 3.228567,2.2452725 3.228567,2.2452725 V 25.003075 c 0,14.615175 -15.496033,31.383339 -15.496033,59.869205 0,6.614673 1.878786,21.13076 1.878786,21.13076 l -8.515893,8.33483 v 19.95604 h 32.219682 32.21969 v -19.95604 l -8.51589,-8.33483 c 0,0 1.87879,-14.516087 1.87879,-21.13076 0,-28.485866 -15.49604,-45.25403 -15.49604,-59.869205 V 7.3359381 c 0,0 0.63172,-1.1687407 3.22857,-2.2452725 -1.55585,-2.059681 -3.84483,-3.9179104 -3.84483,-3.9179104 h -9.47029 z" /></g></svg>
