<?xml version="1.0" encoding="UTF-8" standalone="no"?>
<!-- Created with Inkscape (http://www.inkscape.org/) -->

<svg
   width="512"
   height="512"
   viewBox="0 0 135.46666 135.46667"
   version="1.1"
   id="svg13111"
   xml:space="preserve"
   xmlns="http://www.w3.org/2000/svg"
   xmlns:svg="http://www.w3.org/2000/svg"><defs
     id="defs13108" /><g
     id="layer1"><path
       id="nuka-world"
       style="fill:#000000;stroke:#000000;stroke-width:0;stroke-linecap:butt;stroke-linejoin:miter;stroke-dasharray:none;stroke-opacity:1"
       d="m 58.096189,9.999991e-8 c 0,0 -2.329311,1.89097020000009 -3.912575,3.98694150000009 2.642609,1.0954996 3.285453,2.2848327 3.285453,2.2848327 V 24.250195 c 0,14.872685 -15.769063,31.936293 -15.769063,60.924062 0,6.731219 1.911889,21.503063 1.911889,21.503063 l -8.665938,8.48169 v 20.30765 h 32.787372 32.787383 v -20.30765 l -8.665937,-8.48169 c 0,0 1.911893,-14.771844 1.911893,-21.503063 0,-28.987769 -15.76907,-46.051377 -15.76907,-60.924062 V 6.2717743 c 0,0 0.64285,-1.1893331 3.285455,-2.2848327 C 79.699788,1.8909703 77.370478,9.999991e-8 77.370478,9.999991e-8 h -9.637151 z" /></g></svg>
