<?xml version="1.0" encoding="UTF-8" standalone="no"?>
<!-- Created with Inkscape (http://www.inkscape.org/) -->

<svg
   width="512"
   height="512"
   viewBox="0 0 135.46666 135.46667"
   version="1.1"
   id="svg14209"
   xml:space="preserve"
   inkscape:version="1.2.1 (9c6d41e410, 2022-07-14)"
   sodipodi:docname="vaulttec.svg"
   xmlns:inkscape="http://www.inkscape.org/namespaces/inkscape"
   xmlns:sodipodi="http://sodipodi.sourceforge.net/DTD/sodipodi-0.dtd"
   xmlns="http://www.w3.org/2000/svg"
   xmlns:svg="http://www.w3.org/2000/svg"><sodipodi:namedview
     id="namedview14211"
     pagecolor="#505050"
     bordercolor="#ffffff"
     borderopacity="1"
     inkscape:showpageshadow="0"
     inkscape:pageopacity="0"
     inkscape:pagecheckerboard="1"
     inkscape:deskcolor="#505050"
     inkscape:document-units="px"
     showgrid="false"
     showguides="true"
     inkscape:zoom="1.4142136"
     inkscape:cx="361.68512"
     inkscape:cy="243.59829"
     inkscape:window-width="2560"
     inkscape:window-height="1355"
     inkscape:window-x="1920"
     inkscape:window-y="0"
     inkscape:window-maximized="1"
     inkscape:current-layer="layer1"><sodipodi:guide
       position="67.733332,67.733332"
       orientation="-1,0"
       id="guide14225"
       inkscape:locked="false"
       inkscape:label=""
       inkscape:color="rgb(0,134,229)" /><sodipodi:guide
       position="67.73333,67.733335"
       orientation="0,-1"
       id="guide14227"
       inkscape:locked="false" /></sodipodi:namedview><defs
     id="defs14206"><inkscape:path-effect
       effect="skeletal"
       id="path-effect14437"
       is_visible="true"
       lpeversion="1"
       pattern="#path14333"
       copytype="single"
       prop_scale="0.65"
       scale_y_rel="false"
       spacing="0"
       normal_offset="0"
       tang_offset="0"
       prop_units="false"
       vertical_pattern="false"
       hide_knot="false"
       fuse_tolerance="0" /><inkscape:path-effect
       effect="skeletal"
       id="path-effect14355"
       is_visible="true"
       lpeversion="1"
       pattern="M 1.6363951,0.13229143 0.13467812,15.260566 12.250734,47.723702 24.366791,15.260566 22.865074,0.13229143 h -10.61434 z"
       copytype="repeated_stretched"
       prop_scale="0"
       scale_y_rel="false"
       spacing="0"
       normal_offset="0"
       tang_offset="0"
       prop_units="false"
       vertical_pattern="false"
       hide_knot="false"
       fuse_tolerance="0" /></defs><g
     inkscape:label="Layer 1"
     inkscape:groupmode="layer"
     id="layer1"><path
       id="path14281"
       style="fill:none;stroke:#000000;stroke-width:2.34177;stroke-linecap:round;paint-order:stroke fill markers"
       d="M 84.150782,67.733871 A 16.417452,16.417452 0 0 1 67.73333,84.151323 16.417452,16.417452 0 0 1 51.315877,67.733871 16.417452,16.417452 0 0 1 67.73333,51.316418 16.417452,16.417452 0 0 1 84.150782,67.733871 Z" /><path
       id="path14333"
       style="fill:none;stroke:#000000;stroke-width:2.34177;stroke-linecap:butt;stroke-linejoin:miter;stroke-dasharray:none;stroke-opacity:1"
       inkscape:transform-center-y="-41.489893"
       d="M 56.549386,1.170882 54.967081,17.110999 40.964824,22.91097 28.57482,12.7583 20.666562,20.666558 12.758303,28.574816 22.910974,40.96482 17.111003,54.967078 1.1708854,56.549383 v 11.183946 11.183946 l 15.9401176,1.582305 5.799971,14.002256 -10.152671,12.390004 7.908259,7.90826 7.908258,7.90825 12.390004,-10.15213 14.002257,5.79943 1.582305,15.94013 h 11.183946 11.183947 l 1.582305,-15.94013 14.002256,-5.79943 12.39,10.15213 7.90827,-7.90825 7.90825,-7.90826 -10.15267,-12.390004 5.79997,-14.002256 15.94012,-1.582305 V 67.733329 56.549383 L 118.35566,54.967078 112.55569,40.96482 122.70836,28.574816 114.80011,20.666558 106.89184,12.7583 94.50184,22.91097 80.499584,17.110999 78.917279,1.170882 H 67.733332 Z"
       inkscape:transform-center-x="-2.1753728e-06" /></g></svg>
