<?xml version="1.0" encoding="UTF-8" standalone="no"?>
<!-- Created with Inkscape (http://www.inkscape.org/) -->

<svg
   width="512"
   height="512"
   viewBox="0 0 135.46666 135.46667"
   version="1.1"
   id="svg14209"
   xml:space="preserve"
   xmlns="http://www.w3.org/2000/svg"
   xmlns:svg="http://www.w3.org/2000/svg"><defs
     id="defs14206" /><g
     id="layer1"
     style="fill:#000000"><path
       id="vaulttec"
       style="fill:#000000;stroke:#000000;stroke-width:0;stroke-linecap:butt;stroke-linejoin:miter;stroke-dasharray:none;stroke-opacity:1"
       d="M 56.35277,1.4499999e-6 54.742601,16.220538 40.494023,22.122213 27.886114,11.791257 19.838423,19.838423 11.791257,27.886114 22.122213,40.494023 16.220538,54.742601 1.4499999e-6,56.35277 V 67.733332 79.113895 L 16.220538,80.724064 l 5.901675,14.248578 -10.330956,12.607908 8.047166,8.04769 8.047691,8.04716 12.607909,-10.33042 14.248578,5.90114 1.610169,16.22054 h 11.380562 11.380563 l 1.610169,-16.22054 14.248578,-5.90114 12.607908,10.33042 8.04769,-8.04716 8.04716,-8.04769 -10.33095,-12.607908 5.90167,-14.248578 16.22054,-1.610169 V 67.733332 56.35277 L 119.24612,54.742601 113.34445,40.494023 123.6754,27.886114 115.62824,19.838423 107.58055,11.791257 94.972642,22.122213 80.724064,16.220538 79.113895,1.4499999e-6 H 67.733332 Z M 67.733332,51.027432 A 16.706273,16.706273 0 0 1 84.439759,67.733858 16.706273,16.706273 0 0 1 67.733332,84.440285 16.706273,16.706273 0 0 1 51.026906,67.733858 16.706273,16.706273 0 0 1 67.733332,51.027432 Z" /></g></svg>
