<?xml version="1.0" encoding="UTF-8" standalone="no"?>
<!-- Created with Inkscape (http://www.inkscape.org/) -->

<svg
   width="512"
   height="512"
   viewBox="0 0 135.46666 135.46667"
   version="1.1"
   id="svg6150"
   xml:space="preserve"
   sodipodi:docname="wasteland.svg"
   inkscape:version="1.2.1 (9c6d41e410, 2022-07-14)"
   xmlns:inkscape="http://www.inkscape.org/namespaces/inkscape"
   xmlns:sodipodi="http://sodipodi.sourceforge.net/DTD/sodipodi-0.dtd"
   xmlns:xlink="http://www.w3.org/1999/xlink"
   xmlns="http://www.w3.org/2000/svg"
   xmlns:svg="http://www.w3.org/2000/svg"><sodipodi:namedview
     id="namedview6152"
     pagecolor="#505050"
     bordercolor="#ffffff"
     borderopacity="1"
     inkscape:showpageshadow="0"
     inkscape:pageopacity="0"
     inkscape:pagecheckerboard="1"
     inkscape:deskcolor="#505050"
     inkscape:document-units="px"
     showgrid="false"
     showguides="true"
     inkscape:zoom="1.6819304"
     inkscape:cx="258.92867"
     inkscape:cy="231.57914"
     inkscape:window-width="2560"
     inkscape:window-height="1355"
     inkscape:window-x="1920"
     inkscape:window-y="0"
     inkscape:window-maximized="1"
     inkscape:current-layer="layer1" /><defs
     id="defs6147" /><g
     inkscape:label="Layer 1"
     inkscape:groupmode="layer"
     id="layer1"><g
       id="g9663"
       style="stroke-width:2.2225;stroke-dasharray:none"
       transform="matrix(1.0412857,0,0,1.0412857,-2.7964154,-5.2526908)"><path
         id="path6531"
         style="fill:none;stroke:#000000;stroke-width:2.2225;stroke-linecap:butt;stroke-linejoin:miter;stroke-dasharray:none;stroke-opacity:1"
         d="m 63.097957,36.345068 c -0.0061,0.05259 -0.01314,0.105467 -0.02067,0.15813 -0.0075,0.05266 -0.01539,0.105393 -0.02429,0.15813 -0.0089,0.05274 -0.01868,0.105321 -0.02894,0.15813 -0.01026,0.05281 -0.02096,0.105767 -0.03256,0.158646 -0.01159,0.05288 -0.02429,0.1057 -0.03721,0.158647 -0.01291,0.05295 -0.02609,0.106151 -0.04031,0.159163 -0.02844,0.106025 -0.05946,0.212051 -0.09302,0.318327 -0.03356,0.106276 -0.06997,0.212851 -0.108521,0.31936 -0.03855,0.106511 -0.07958,0.213149 -0.12299,0.319878 -0.04341,0.106727 -0.08881,0.213465 -0.136942,0.320393 -0.04814,0.10693 -0.09868,0.213797 -0.151412,0.320911 -0.05274,0.107114 -0.107643,0.214147 -0.164848,0.321427 -0.0572,0.107282 -0.116741,0.215028 -0.178284,0.322461 -0.06154,0.107434 -0.125452,0.214893 -0.191202,0.322461 -0.06575,0.107568 -0.133261,0.215292 -0.203089,0.322978 -0.06983,0.107686 -0.141716,0.21519 -0.21549,0.322978 -0.07378,0.107787 -0.149785,0.215622 -0.227377,0.323494 -0.07759,0.107873 -0.156951,0.215554 -0.238228,0.323495 -0.08128,0.107941 -0.164248,0.216018 -0.24908,0.324011 -0.08483,0.107992 -0.171675,0.215983 -0.259933,0.324011 -0.08826,0.108028 -0.178198,0.216482 -0.269751,0.324528 -0.09155,0.108046 -0.184335,0.215963 -0.279053,0.324011 -0.09472,0.108048 -0.19112,0.215978 -0.288871,0.324012 -0.09775,0.108032 -0.197001,0.216009 -0.297656,0.324011 -0.100655,0.108002 -0.202497,0.216057 -0.305925,0.324011 -0.103426,0.107954 -0.208639,0.215606 -0.314709,0.323494 -0.10607,0.10789 -0.213362,0.216203 -0.321944,0.324012 -0.108583,0.107808 -0.218215,0.215267 -0.329179,0.322977 -0.110964,0.107711 -0.223198,0.215382 -0.336414,0.322978 -0.113215,0.107596 -0.227279,0.214996 -0.342614,0.322461 -0.115337,0.107465 -0.232006,0.215144 -0.349333,0.322461 -0.117327,0.107317 -0.235314,0.214274 -0.3545,0.321427 -0.119187,0.107154 -0.239269,0.214455 -0.360185,0.321428 -0.241833,0.213945 -0.487387,0.427666 -0.735356,0.640788 -0.123984,0.106559 -0.24864,0.212543 -0.374137,0.318326 -0.125497,0.105784 -0.251895,0.211271 -0.378788,0.31626 -0.126893,0.104989 -0.254235,0.209499 -0.382406,0.313676 -0.128171,0.104177 -0.256691,0.207743 -0.386023,0.311092 -0.129331,0.103349 -0.259266,0.206521 -0.38964,0.309025 -0.130375,0.102504 -0.261441,0.2048 -0.392741,0.306441 -0.262599,0.203285 -0.527121,0.404362 -0.792717,0.604098 -0.265594,0.199736 -0.532299,0.39771 -0.799951,0.593762 -0.26765,0.196053 -0.535835,0.390159 -0.804602,0.582394 -0.268766,0.192233 -0.538243,0.382742 -0.807186,0.571024 -0.268941,0.188282 -0.537458,0.374427 -0.805635,0.558622 -0.268177,0.184196 -0.536064,0.366247 -0.802535,0.54622 -0.266472,0.179974 -0.531476,0.358201 -0.7953,0.533818 -0.263826,0.175617 -0.526276,0.348739 -0.786516,0.519865 -0.260238,0.171125 -0.5184,0.339928 -0.774113,0.506429 -0.511424,0.332999 -1.013007,0.656793 -1.500683,0.970483 -0.487677,0.31369 -0.961596,0.617237 -1.418002,0.910539 0.36409,0.466543 0.56224,0.986723 0.56224,1.591117 0,2.836472 1.279182,2.891861 1.334802,5.283398 0.09682,4.163047 -2.383834,4.915961 -2.383834,7.576799 0,2.660837 2.32854,2.101734 2.32854,7.606771 0,4.226902 -1.32e-4,-1.43e-4 0.111105,11.846305 12.975265,17.043308 7.4e-5,2.67e-4 18.069181,23.734468 9.228377,0 0,0 9.228377,0 18.069107,-23.734201 5.093916,-6.69116 18.069181,-23.734468 0.111237,-11.846448 0.111105,-7.619403 0.111105,-11.846305 0,-5.505037 2.32854,-4.945934 2.32854,-7.606771 0,-2.660838 -2.480654,-3.413752 -2.383834,-7.576799 0.05562,-2.391537 1.334802,-2.446926 1.334802,-5.283398 0,-0.604394 0.19815,-1.124574 0.56224,-1.591117 -0.456406,-0.293302 -0.930325,-0.596849 -1.418002,-0.910539 -0.487676,-0.31369 -0.989259,-0.637484 -1.500683,-0.970483 -0.255713,-0.166501 -0.513875,-0.335304 -0.774113,-0.506429 -0.26024,-0.171126 -0.52269,-0.344248 -0.786516,-0.519865 -0.263824,-0.175617 -0.528828,-0.353844 -0.7953,-0.533818 -0.266471,-0.179973 -0.534358,-0.362024 -0.802535,-0.54622 -0.268177,-0.184195 -0.536694,-0.37034 -0.805635,-0.558622 -0.268943,-0.188282 -0.53842,-0.378791 -0.807186,-0.571024 C 84.410804,50.107537 84.142619,49.913431 83.874969,49.717378 83.607317,49.521326 83.340612,49.323352 83.075018,49.123616 82.809422,48.92388 82.5449,48.722803 82.282301,48.519518 82.151001,48.417877 82.019935,48.315581 81.88956,48.213077 81.7592,48.110573 81.629265,48.007401 81.499934,47.904052 81.370602,47.800703 81.242082,47.697137 81.113911,47.59296 80.98574,47.488783 80.858398,47.384273 80.731505,47.279284 80.604612,47.174295 80.478214,47.068808 80.352717,46.963024 80.22722,46.857241 80.102564,46.751257 79.97858,46.644698 79.730611,46.431576 79.485057,46.217855 79.243224,46.00391 c -0.120916,-0.106973 -0.240998,-0.214274 -0.360185,-0.321428 -0.119186,-0.107153 -0.237173,-0.21411 -0.3545,-0.321427 -0.117327,-0.107317 -0.233996,-0.214996 -0.349333,-0.322461 -0.115335,-0.107465 -0.229399,-0.214865 -0.342614,-0.322461 -0.113216,-0.107596 -0.22545,-0.215267 -0.336414,-0.322978 -0.110964,-0.10771 -0.220596,-0.215169 -0.329179,-0.322977 -0.108582,-0.107809 -0.215874,-0.216122 -0.321944,-0.324012 -0.10607,-0.107888 -0.211283,-0.21554 -0.314709,-0.323494 -0.103428,-0.107954 -0.20527,-0.216009 -0.305925,-0.324011 -0.100655,-0.108002 -0.199906,-0.215979 -0.297656,-0.324011 -0.09775,-0.108034 -0.194151,-0.215964 -0.288871,-0.324012 -0.09472,-0.108048 -0.187503,-0.215965 -0.279053,-0.324011 -0.09155,-0.108046 -0.181491,-0.2165 -0.269751,-0.324528 -0.08826,-0.108028 -0.175103,-0.216019 -0.259933,-0.324011 -0.08483,-0.107993 -0.1678,-0.21607 -0.24908,-0.324011 -0.08128,-0.107941 -0.160638,-0.215622 -0.238228,-0.323495 -0.07759,-0.107872 -0.153597,-0.215707 -0.227377,-0.323494 -0.07377,-0.107788 -0.14566,-0.215292 -0.21549,-0.322978 -0.06983,-0.107686 -0.137339,-0.21541 -0.203089,-0.322978 -0.06575,-0.107568 -0.129663,-0.215027 -0.191202,-0.322461 -0.06154,-0.107433 -0.121084,-0.215179 -0.178284,-0.322461 -0.0572,-0.10728 -0.112108,-0.214313 -0.164848,-0.321427 -0.05273,-0.107114 -0.103272,-0.213981 -0.151412,-0.320911 -0.04813,-0.106928 -0.09353,-0.213666 -0.136942,-0.320393 -0.04341,-0.106729 -0.08444,-0.213367 -0.12299,-0.319878 -0.03855,-0.106509 -0.07496,-0.213084 -0.108521,-0.31936 -0.03356,-0.106276 -0.06458,-0.212302 -0.09302,-0.318327 -0.01422,-0.05301 -0.0274,-0.106213 -0.04031,-0.159163 -0.01292,-0.05295 -0.02562,-0.105767 -0.03721,-0.158647 -0.0116,-0.05288 -0.0223,-0.105836 -0.03256,-0.158646 -0.01026,-0.05281 -0.02004,-0.10539 -0.02894,-0.15813 -0.0089,-0.05274 -0.01679,-0.10547 -0.02429,-0.15813 -0.0075,-0.05266 -0.01457,-0.10554 -0.02067,-0.15813 -3.183888,0.06711 -6.790332,0.105001 -9.270751,0 z"
         sodipodi:nodetypes="ccssssssssssssssssssssssssssssssssssssssssssssssssscssssccccsssscssssssssssssssssssssssssssssssssssssssssssssssssscccc" /><path
         id="path8618"
         style="fill:none;stroke:#000000;stroke-width:2.2225;stroke-linecap:butt;stroke-linejoin:miter;stroke-dasharray:none;stroke-opacity:1"
         d="m 28.575003,27.129089 c -4.792193,0.02394 -9.306724,1.611352 -12.518616,5.796545 -6.3320582,8.250865 -4.930038,23.607196 -2.634464,31.998564 1.63637,5.98168 0.229045,11.956539 -3.158464,11.769824 -3.5316909,-0.194661 -5.803263,-2.472718 -5.803263,-2.472718 0,0 2.6171944,13.646492 11.040153,13.375928 8.760528,-0.281408 15.961956,-7.730836 14.51591,-19.187976 -1.393506,-11.040852 1.16818,-16.462887 5.117,-15.962333 2.703925,0.342753 5.212047,0.542003 6.82904,1.848466 v 0 c 0.225932,-0.145191 0.456971,-0.294307 0.692464,-0.447001 0.235494,-0.152694 0.475428,-0.30899 0.719336,-0.468705 0.243909,-0.159715 0.491414,-0.322606 0.742591,-0.488859 0.251177,-0.166254 0.505962,-0.335669 0.763261,-0.50798 0.257298,-0.17231 0.517007,-0.347663 0.77928,-0.525549 0.262273,-0.177885 0.527132,-0.358591 0.793233,-0.541569 0.266101,-0.182978 0.533753,-0.367932 0.802535,-0.555521 0.268783,-0.187589 0.53842,-0.377757 0.808737,-0.569475 0.270316,-0.191718 0.541132,-0.384961 0.811836,-0.580326 0.270704,-0.195365 0.541375,-0.392649 0.81132,-0.591178 0.269945,-0.19853 0.539147,-0.398752 0.807186,-0.599964 0.268039,-0.201212 0.534965,-0.403268 0.799951,-0.606681 0.264986,-0.203413 0.528313,-0.407751 0.789099,-0.612883 0.260787,-0.205131 0.51919,-0.411165 0.77463,-0.617533 0.25544,-0.206368 0.507597,-0.413511 0.756543,-0.620634 0.124473,-0.103561 0.248402,-0.206915 0.371037,-0.310575 0.122635,-0.10366 0.244182,-0.207394 0.364835,-0.311092 0.120654,-0.103698 0.24042,-0.207662 0.359152,-0.311609 0.118731,-0.103948 0.236242,-0.208009 0.35295,-0.312126 0.116707,-0.104117 0.232684,-0.208436 0.347265,-0.312642 0.114582,-0.104207 0.227678,-0.208427 0.340031,-0.312643 0.112353,-0.104215 0.223808,-0.207981 0.33383,-0.312125 0.110022,-0.104145 0.219006,-0.208649 0.326595,-0.312643 0.107589,-0.103994 0.21379,-0.207846 0.318844,-0.311609 0.105053,-0.103762 0.208676,-0.207123 0.311092,-0.310575 0.102415,-0.103452 0.203665,-0.206998 0.30334,-0.310059 0.09968,-0.10306 0.197723,-0.205919 0.294556,-0.308508 0.09683,-0.102589 0.1924,-0.20492 0.286287,-0.306958 0.09389,-0.102038 0.186146,-0.203484 0.276986,-0.304891 0.09084,-0.101407 0.18051,-0.202645 0.268201,-0.303341 0.08769,-0.100695 0.173426,-0.200853 0.257865,-0.300756 0.08444,-0.0999 0.167479,-0.199658 0.248564,-0.29869 0.08109,-0.09903 0.160083,-0.197509 0.237711,-0.295589 0.07763,-0.09808 0.153824,-0.19544 0.227893,-0.292489 0.07407,-0.09705 0.146116,-0.193968 0.216525,-0.289905 0.07041,-0.09594 0.139027,-0.191026 0.205672,-0.28577 0.06665,-0.09474 0.131524,-0.188681 0.194303,-0.282154 0.06278,-0.09347 0.123607,-0.186415 0.182418,-0.278536 0.05881,-0.09212 0.115791,-0.183713 0.170532,-0.274402 0.05474,-0.09069 0.107045,-0.180574 0.157613,-0.26975 0.05057,-0.08918 0.09892,-0.177517 0.145211,-0.265101 0.04629,-0.08758 0.09089,-0.174537 0.132809,-0.260449 0.04192,-0.08591 0.08142,-0.170606 0.118855,-0.254765 0.03744,-0.08416 0.07257,-0.167787 0.10542,-0.250114 0.03285,-0.08233 0.0633,-0.163499 0.09147,-0.243912 0.02817,-0.08041 0.05413,-0.159808 0.07751,-0.238229 0.02338,-0.07842 0.04455,-0.156195 0.06305,-0.232544 0.01849,-0.07635 0.03404,-0.15163 0.04754,-0.225826 0.0135,-0.0742 0.02466,-0.147145 0.03307,-0.219108 v 0 C 56.629193,35.955246 50.427856,35.094553 46.256611,32.591805 41.356774,29.651902 34.736394,27.098306 28.575003,27.129089 Z"
         sodipodi:nodetypes="sssscsssccssssssssssssssssssssssssssssssssssssssssssssssssccss" /><use
         x="0"
         y="0"
         xlink:href="#path8618"
         id="use9626"
         transform="matrix(-1,0,0,1,135.46666,-4.0000003e-6)"
         style="stroke:#000000;stroke-width:2.2225;stroke-dasharray:none;stroke-opacity:1" /></g><g
       id="g9658"
       style="stroke-width:2.2225;stroke-dasharray:none"
       transform="matrix(1.0412857,0,0,1.0412857,-2.7964154,-5.2526908)"><path
         style="fill:none;stroke:#000000;stroke-width:2.2225;stroke-linecap:butt;stroke-linejoin:miter;stroke-dasharray:none;stroke-opacity:1"
         d="m 60.324999,75.449478 c -3.146184,-0.275291 -10.608546,-2.045021 -10.618377,-4.994571 -0.01043,-3.128729 1.67308,-2.672308 2.398967,-2.721579 1.125091,-0.07637 6.115399,1.404113 8.21941,7.71615 z"
         id="path9630"
         sodipodi:nodetypes="cssc" /><use
         x="0"
         y="0"
         xlink:href="#path9630"
         id="use9648"
         transform="matrix(-1,0,0,1,135.46666,0)"
         style="stroke:#000000;stroke-width:2.2225;stroke-linejoin:miter;stroke-dasharray:none;stroke-opacity:1" /></g><g
       id="g9654"
       style="stroke-width:2.2225;stroke-dasharray:none"
       transform="matrix(1.0412857,0,0,1.0412857,-2.7964154,-5.2526908)"><path
         style="fill:none;stroke:#000000;stroke-width:2.2225;stroke-linecap:butt;stroke-linejoin:miter;stroke-dasharray:none;stroke-opacity:1"
         d="m 65.881249,83.829086 c -2.480751,0 -3.295322,-1.100628 -3.295322,-3.337033 1.934386,0 3.295322,1.251676 3.295322,3.337033 z"
         id="path9632"
         sodipodi:nodetypes="ccc" /><use
         x="0"
         y="0"
         xlink:href="#path9632"
         id="use9650"
         transform="matrix(-1,0,0,1,135.46666,0)"
         style="stroke:#000000;stroke-width:2.2225;stroke-linejoin:miter;stroke-dasharray:none;stroke-opacity:1" /></g></g></svg>
