<?xml version="1.0" encoding="UTF-8" standalone="no"?>
<!-- Created with Inkscape (http://www.inkscape.org/) -->

<svg
   width="512"
   height="512"
   viewBox="0 0 135.46666 135.46667"
   version="1.1"
   id="svg6150"
   xml:space="preserve"
   xmlns="http://www.w3.org/2000/svg"
   xmlns:svg="http://www.w3.org/2000/svg"><defs
     id="defs6147" /><g
     id="layer1"><path
       id="wasteland"
       style="fill:#000000;stroke:#000000;stroke-width:0;stroke-linecap:butt;stroke-linejoin:miter;stroke-dasharray:none;stroke-opacity:1"
       d="m 25.814914,21.741633 c -5.129987,0.02563 -9.963236,1.724898 -13.401526,6.205099 -6.7783958,8.832453 -5.2773063,25.27109 -2.8199201,34.253952 1.7517141,6.403319 0.24536,12.799731 -3.3809292,12.599858 C 2.4319046,74.592159 2.1000007e-6,72.153281 2.1000007e-6,72.153281 c 0,0 2.8016975999993,14.608645 11.8183758999993,14.319008 9.378045,-0.301244 17.087287,-8.275843 15.53931,-20.540576 -1.49173,-11.819104 1.250641,-17.623236 5.477806,-17.087397 2.894522,0.36691 5.579143,0.579852 7.310118,1.978406 0.241857,-0.155426 0.489011,-0.314675 0.741105,-0.478133 0.252091,-0.163457 0.509223,-0.331066 0.770324,-0.50204 0.261103,-0.170972 0.525881,-0.345316 0.794764,-0.523289 0.268879,-0.177973 0.541638,-0.359551 0.817075,-0.544009 0.275435,-0.184456 0.553315,-0.372178 0.834075,-0.562603 0.280761,-0.190421 0.564624,-0.383726 0.849483,-0.579603 0.284858,-0.195876 0.571316,-0.393665 0.859045,-0.594478 0.287729,-0.200813 0.576578,-0.404652 0.865951,-0.609884 0.289371,-0.205233 0.578821,-0.411905 0.868607,-0.621042 0.289787,-0.209134 0.579634,-0.420207 0.868608,-0.632727 0.288974,-0.212526 0.577425,-0.426897 0.864358,-0.642293 0.28693,-0.215395 0.572725,-0.431977 0.856387,-0.649729 0.283666,-0.217752 0.565533,-0.436512 0.844702,-0.656105 0.27917,-0.219591 0.555848,-0.439969 0.829295,-0.660884 0.273443,-0.220915 0.543143,-0.442884 0.809637,-0.664604 0.133247,-0.110862 0.266102,-0.221071 0.397381,-0.332038 0.13128,-0.110964 0.261321,-0.22209 0.390475,-0.333098 0.129159,-0.111009 0.257002,-0.222357 0.3841,-0.333631 0.1271,-0.111275 0.253324,-0.222705 0.378257,-0.334161 0.124933,-0.111457 0.248692,-0.223144 0.371349,-0.334693 0.122659,-0.111553 0.244171,-0.223131 0.364444,-0.334693 0.120269,-0.111562 0.239228,-0.222676 0.357006,-0.334162 0.117774,-0.111486 0.234395,-0.223371 0.349567,-0.334692 0.115173,-0.111325 0.229141,-0.222553 0.3416,-0.33363 0.112458,-0.111077 0.223463,-0.221824 0.333099,-0.332569 0.109634,-0.110741 0.2179,-0.221179 0.324598,-0.331505 0.106707,-0.110325 0.211379,-0.220622 0.315037,-0.330443 0.103656,-0.109817 0.206033,-0.219618 0.306536,-0.328849 0.100512,-0.10923 0.199199,-0.217637 0.296442,-0.326193 0.09724,-0.108555 0.193539,-0.216804 0.287411,-0.324599 0.09387,-0.107792 0.185332,-0.214997 0.275723,-0.321942 0.0904,-0.106943 0.17936,-0.213805 0.266161,-0.319819 0.08681,-0.10601 0.171372,-0.211636 0.254473,-0.316629 0.08311,-0.104994 0.165088,-0.209021 0.244378,-0.312911 0.07929,-0.103892 0.156256,-0.207558 0.231628,-0.310255 0.07538,-0.102702 0.148599,-0.204582 0.219942,-0.306004 0.07135,-0.101417 0.141049,-0.202226 0.208254,-0.302287 0.0672,-0.10006 0.132014,-0.199421 0.194971,-0.298036 0.06296,-0.09861 0.124153,-0.196703 0.182753,-0.293785 0.0586,-0.09708 0.114807,-0.193012 0.16894,-0.288474 0.05414,-0.09546 0.105571,-0.190466 0.155129,-0.284224 0.04955,-0.09376 0.0975,-0.18641 0.142376,-0.278379 0.04487,-0.09197 0.08689,-0.182976 0.126971,-0.273067 0.04007,-0.0901 0.078,-0.179626 0.113158,-0.267754 0.03517,-0.08813 0.06759,-0.174767 0.09775,-0.260848 0.03015,-0.08608 0.05785,-0.171055 0.08288,-0.255004 0.02502,-0.08395 0.04767,-0.167429 0.06747,-0.24916 0.01979,-0.08173 0.03655,-0.162296 0.051,-0.241723 0.01445,-0.07943 0.0266,-0.157248 0.03559,-0.234284 C 55.846628,31.190036 49.20786,30.268359 44.742589,27.589194 39.497372,24.442063 32.410611,21.70868 25.814914,21.741633 Z m 83.836826,0 c -6.59568,-0.03295 -13.682446,2.70043 -18.927667,5.847561 -4.465267,2.679165 -11.104038,3.600842 -16.193289,3.918564 0.0089,0.07703 0.02115,0.154854 0.03559,0.234284 0.01445,0.07943 0.0312,0.159991 0.051,0.241723 0.0198,0.08173 0.04245,0.165212 0.06747,0.24916 0.02502,0.08395 0.05272,0.168928 0.08288,0.255004 0.03015,0.08608 0.06259,0.172715 0.09776,0.260848 0.03517,0.08812 0.07308,0.177661 0.113159,0.267754 0.04008,0.09009 0.0821,0.181101 0.126971,0.273067 0.04487,0.09197 0.09282,0.184625 0.142376,0.278379 0.04955,0.09376 0.100996,0.188757 0.155129,0.284224 0.05414,0.09546 0.11034,0.19139 0.168939,0.288474 0.0586,0.09708 0.119797,0.195172 0.182753,0.293785 0.06296,0.09861 0.127766,0.197977 0.194972,0.298036 0.0672,0.100059 0.136905,0.200868 0.208254,0.302287 0.07135,0.101417 0.144567,0.203301 0.21994,0.306004 0.07538,0.102692 0.152337,0.206363 0.231629,0.310255 0.07929,0.103891 0.161276,0.207917 0.244378,0.312911 0.08311,0.104993 0.167667,0.210622 0.254473,0.316629 0.0868,0.106012 0.175768,0.212876 0.26616,0.319819 0.0904,0.106942 0.181853,0.21415 0.275724,0.321942 0.09387,0.107795 0.190168,0.216044 0.287411,0.324599 0.09724,0.108556 0.195937,0.216963 0.296442,0.326193 0.100512,0.109231 0.20288,0.219032 0.306536,0.328849 0.103656,0.109821 0.208331,0.220118 0.315037,0.330443 0.106696,0.110326 0.214965,0.220764 0.324599,0.331505 0.109635,0.110745 0.22064,0.221492 0.333098,0.332569 0.11246,0.111077 0.226426,0.222305 0.3416,0.33363 0.115173,0.111321 0.231789,0.223206 0.349568,0.334692 0.117777,0.111486 0.236732,0.2226 0.357005,0.334162 0.120273,0.111562 0.241784,0.22314 0.364444,0.334693 0.122657,0.111549 0.246416,0.223236 0.37135,0.334693 0.124932,0.111456 0.251155,0.222886 0.378256,0.334161 0.127099,0.111274 0.25494,0.222622 0.3841,0.333631 0.129155,0.111008 0.259195,0.222134 0.390474,0.333098 0.13128,0.110967 0.264135,0.221176 0.397382,0.332038 0.266492,0.22172 0.536191,0.443689 0.809637,0.664604 0.273446,0.220915 0.550125,0.441293 0.829296,0.660884 0.279168,0.219593 0.561037,0.438353 0.844699,0.656105 0.283665,0.217752 0.569456,0.434334 0.85639,0.649729 0.286933,0.215396 0.575384,0.429767 0.864357,0.642293 0.288974,0.21252 0.578822,0.423593 0.868608,0.632727 0.289786,0.209137 0.579236,0.415809 0.868608,0.621042 0.289371,0.205232 0.578221,0.409071 0.865951,0.609884 0.287726,0.200813 0.574186,0.398602 0.859045,0.594478 0.284859,0.195877 0.568721,0.389182 0.849482,0.579603 0.280761,0.190425 0.558641,0.378147 0.834076,0.562603 0.275436,0.184458 0.548195,0.366036 0.817075,0.544009 0.268883,0.177973 0.53366,0.352317 0.794762,0.523289 0.261102,0.170974 0.518231,0.338583 0.770326,0.50204 0.252093,0.163458 0.499247,0.322707 0.741105,0.478133 1.730974,-1.398554 4.415603,-1.611496 7.31011,-1.978406 4.22718,-0.535839 6.96955,5.268293 5.47781,17.087397 -1.54798,12.264733 6.16127,20.239332 15.53931,20.540576 9.01667,0.289637 11.81837,-14.319008 11.81837,-14.319008 0,0 -2.43192,2.438878 -6.21252,2.647261 -3.62631,0.199873 -5.13266,-6.196539 -3.38094,-12.599858 2.45739,-8.982862 3.95846,-25.421499 -2.81992,-34.253952 -3.4383,-4.480201 -8.27153,-6.179472 -13.40153,-6.205099 z m -46.880362,9.865469 c -0.0066,0.0563 -0.01425,0.113097 -0.02231,0.169472 -0.008,0.05637 -0.01651,0.112485 -0.02603,0.16894 -0.0096,0.05646 -0.01982,0.112939 -0.03081,0.169472 -0.01098,0.05653 -0.02264,0.113396 -0.03506,0.170002 -0.01241,0.0566 -0.02601,0.112792 -0.03985,0.169472 -0.01382,0.05669 -0.02781,0.113785 -0.04303,0.170533 -0.03044,0.113499 -0.06342,0.227301 -0.09934,0.341068 -0.03593,0.113768 -0.07508,0.227583 -0.116347,0.3416 -0.04127,0.114019 -0.08529,0.22841 -0.131751,0.342662 -0.04647,0.11425 -0.0951,0.228196 -0.146628,0.342662 -0.05154,0.114467 -0.105582,0.229059 -0.162033,0.343723 -0.05646,0.114665 -0.115141,0.229414 -0.176378,0.344257 -0.06123,0.114844 -0.12484,0.22978 -0.190722,0.344785 -0.06588,0.115008 -0.134681,0.230168 -0.205066,0.345318 -0.07039,0.115151 -0.142534,0.230573 -0.217285,0.34585 -0.07475,0.115276 -0.151591,0.230464 -0.230565,0.34585 -0.07898,0.115382 -0.160255,0.230373 -0.243316,0.345849 -0.08306,0.115477 -0.168,0.23083 -0.255006,0.34638 -0.08701,0.11555 -0.175879,0.231306 -0.266692,0.346912 -0.09081,0.115604 -0.183899,0.231269 -0.278379,0.346912 -0.09448,0.115643 -0.190998,0.231781 -0.289004,0.347443 -0.098,0.115663 -0.197172,0.231249 -0.298567,0.346911 -0.101396,0.115665 -0.204552,0.231262 -0.309193,0.346913 -0.104641,0.115647 -0.211005,0.231296 -0.318755,0.346911 -0.107751,0.115616 -0.216536,0.231348 -0.327255,0.346912 -0.110716,0.115564 -0.223271,0.230356 -0.336818,0.34585 -0.113547,0.115495 -0.22855,0.231503 -0.344787,0.346911 -0.116237,0.115405 -0.233438,0.230547 -0.352224,0.345849 -0.118786,0.115304 -0.238999,0.230669 -0.360192,0.34585 -0.121197,0.11518 -0.243636,0.230277 -0.367101,0.345318 -0.123467,0.11504 -0.247876,0.229907 -0.373474,0.344786 -0.125598,0.114882 -0.252262,0.229549 -0.37985,0.344256 -0.127589,0.114707 -0.256255,0.229741 -0.385694,0.344255 -0.25888,0.229027 -0.521348,0.45771 -0.786793,0.685855 -0.132724,0.114068 -0.266226,0.227296 -0.40057,0.340537 -0.134343,0.11324 -0.269512,0.226553 -0.40535,0.338943 -0.135838,0.112386 -0.272394,0.224235 -0.4096,0.335755 -0.137206,0.111518 -0.27487,0.222465 -0.413319,0.333099 -0.138447,0.110634 -0.277476,0.220713 -0.417038,0.330443 -0.139565,0.109729 -0.27967,0.219515 -0.420226,0.328317 -0.281109,0.217615 -0.564633,0.432729 -0.848951,0.646541 -0.284315,0.213816 -0.569869,0.425514 -0.856389,0.635386 -0.286514,0.20987 -0.573457,0.417912 -0.861169,0.623697 -0.287713,0.205785 -0.575928,0.409925 -0.863827,0.611479 -0.287898,0.201551 -0.575685,0.400487 -0.862763,0.597665 -0.287081,0.197181 -0.573793,0.392257 -0.859045,0.584916 -0.285256,0.19266 -0.568658,0.383641 -0.851076,0.571634 -0.282423,0.187997 -0.56346,0.373039 -0.842045,0.556228 -0.278579,0.183185 -0.555025,0.364177 -0.828763,0.542416 -0.547475,0.356469 -1.084475,0.702807 -1.606525,1.03861 -0.522054,0.335798 -1.029227,0.660882 -1.517806,0.974859 0.389755,0.499427 0.601916,1.056218 0.601916,1.703214 0,3.036409 1.369012,3.095667 1.428554,5.655778 0.103644,4.456494 -2.551635,5.262325 -2.551635,8.110723 0,2.848395 2.492665,2.25005 2.492665,8.14313 0,4.524847 -7.6e-5,1.86e-4 0.119001,12.68167 13.88987,18.244659 -1.78e-4,2.45e-4 19.342591,25.407449 h 9.879281 c 19.34277,-25.407204 5.452721,-7.16279 19.342591,-25.407449 0.119078,-12.681484 0.119,-8.156823 0.119,-12.68167 0,-5.89308 2.492666,-5.294735 2.492666,-8.14313 0,-2.848398 -2.655279,-3.654229 -2.551634,-8.110723 0.05954,-2.560111 1.428553,-2.619369 1.428553,-5.655778 0,-0.646996 0.212162,-1.203787 0.601916,-1.703214 -0.488578,-0.313977 -0.995752,-0.639061 -1.517806,-0.974859 -0.522049,-0.335803 -1.059052,-0.682141 -1.606525,-1.03861 -0.273738,-0.178239 -0.550183,-0.359231 -0.828763,-0.542416 -0.278584,-0.183189 -0.559622,-0.368231 -0.842045,-0.556228 -0.282418,-0.187993 -0.56582,-0.378974 -0.851076,-0.571634 -0.285252,-0.192659 -0.571963,-0.387735 -0.859045,-0.584916 -0.287078,-0.197178 -0.574864,-0.396114 -0.862763,-0.597665 -0.287899,-0.201554 -0.576114,-0.405694 -0.863827,-0.611479 -0.287712,-0.205785 -0.574655,-0.413827 -0.861169,-0.623697 -0.28652,-0.209872 -0.572073,-0.42157 -0.856389,-0.635386 -0.284318,-0.213812 -0.567841,-0.428926 -0.848951,-0.646541 -0.140556,-0.108802 -0.280661,-0.218588 -0.420226,-0.328317 -0.139549,-0.10973 -0.27859,-0.219809 -0.417038,-0.330443 -0.138449,-0.110634 -0.276113,-0.221581 -0.413319,-0.333099 -0.137205,-0.11152 -0.273762,-0.223369 -0.4096,-0.335755 -0.135838,-0.11239 -0.271007,-0.225703 -0.40535,-0.338943 -0.134343,-0.113241 -0.267846,-0.226469 -0.40057,-0.340537 -0.265442,-0.228145 -0.527913,-0.456828 -0.78679,-0.685855 -0.129439,-0.114514 -0.258104,-0.229548 -0.385693,-0.344255 -0.127588,-0.114707 -0.254253,-0.229374 -0.379851,-0.344256 -0.125597,-0.114879 -0.25001,-0.229746 -0.373474,-0.344786 -0.123464,-0.115041 -0.245904,-0.230138 -0.3671,-0.345318 -0.121194,-0.115181 -0.241407,-0.230546 -0.360192,-0.34585 -0.118786,-0.115302 -0.235988,-0.230444 -0.352225,-0.345849 -0.116236,-0.115408 -0.23124,-0.231416 -0.344787,-0.346911 -0.113547,-0.115494 -0.226101,-0.230286 -0.336818,-0.34585 -0.110719,-0.115564 -0.219504,-0.231296 -0.327254,-0.346912 -0.107751,-0.115615 -0.214116,-0.231264 -0.318757,-0.346911 -0.10464,-0.115651 -0.207795,-0.231248 -0.309192,-0.346913 -0.101396,-0.115662 -0.200566,-0.231248 -0.298566,-0.346911 -0.098,-0.115662 -0.194523,-0.2318 -0.289005,-0.347443 -0.09448,-0.115643 -0.187569,-0.231308 -0.278379,-0.346912 -0.09081,-0.115606 -0.179683,-0.231362 -0.266693,-0.346912 -0.08701,-0.11555 -0.171944,-0.230903 -0.255004,-0.34638 -0.08306,-0.115476 -0.164336,-0.230467 -0.243317,-0.345849 -0.07897,-0.115386 -0.155813,-0.230574 -0.230565,-0.34585 -0.07475,-0.115277 -0.1469,-0.230699 -0.217285,-0.34585 -0.07038,-0.11515 -0.139189,-0.23031 -0.205066,-0.345318 -0.06588,-0.115005 -0.12949,-0.229941 -0.190721,-0.344785 -0.06123,-0.114843 -0.11992,-0.229592 -0.176378,-0.344257 -0.05645,-0.114664 -0.1105,-0.229256 -0.162034,-0.343723 -0.05153,-0.114466 -0.100153,-0.228412 -0.146627,-0.342662 -0.04647,-0.114252 -0.09049,-0.228643 -0.131752,-0.342662 -0.04127,-0.114017 -0.08041,-0.227832 -0.116346,-0.3416 -0.03593,-0.113767 -0.0689,-0.227569 -0.09934,-0.341068 -0.01523,-0.05675 -0.02922,-0.113851 -0.04303,-0.170533 -0.01383,-0.05669 -0.02744,-0.112865 -0.03985,-0.169472 -0.01242,-0.0566 -0.02408,-0.11347 -0.03506,-0.170002 -0.01098,-0.05653 -0.02128,-0.113014 -0.03081,-0.169472 -0.0096,-0.05646 -0.01801,-0.112568 -0.02603,-0.16894 -0.008,-0.05637 -0.01578,-0.113175 -0.02231,-0.169472 -3.408315,0.07184 -7.268647,0.112403 -9.923907,0 z M 51.063503,65.205481 c 1.311125,-0.02836 6.522075,1.611281 8.739203,8.262664 C 56.434752,73.17345 48.446423,71.279018 48.4359,68.121559 c -0.01116,-3.349268 1.791049,-2.860677 2.568102,-2.913421 0.01881,-0.0012 0.03869,-0.0023 0.05949,-0.0027 z m 33.274312,0 c 0.0455,-8.07e-4 0.08721,1.02e-4 0.124845,0.0027 0.777056,0.05274 2.579269,-0.435848 2.568105,2.913421 -0.01049,3.157459 -7.998853,5.051891 -11.366807,5.346585 2.181934,-6.545807 7.263412,-8.237638 8.673857,-8.262664 z M 62.223119,78.866262 c 2.070739,0 3.527556,1.33983 3.527556,3.572182 -2.655618,0 -3.527556,-1.178133 -3.527556,-3.572182 z m 11.020426,0 c 0,2.394049 -0.871938,3.572182 -3.527557,3.572182 0,-2.232352 1.456817,-3.572182 3.527557,-3.572182 z" /></g></svg>
